<svg width="959" height="360" viewBox="0 0 959 360" fill="none" xmlns="http://www.w3.org/2000/svg">
<path d="M157.4 312.455C158.158 312.455 158.916 312.453 159.674 312.448C164.077 315.511 168.975 317.689 173.68 320.421C186.912 328.103 198.68 335.144 213.437 339.495C257.213 352.404 303.517 349.508 348.428 355.496C369 358.239 389.294 357.732 410.124 357.732C451.722 357.732 492.136 348.572 533.168 342.64C546.717 340.681 556.626 333.147 569.151 328.316C583.274 322.869 597.463 316.928 611.912 312.455C624.358 308.603 636.008 302.566 649.014 300.647C656.286 299.574 663.695 299.878 671.024 299.878C685.725 299.878 699.885 302.778 714.134 306.446C747.278 314.978 779.892 315.087 813.91 314.971C850.216 314.847 897.83 313.319 926.822 288.28C950.877 267.505 956.587 239.87 956.587 209.605C956.587 170.79 958.193 132.449 946.526 94.946C942.859 83.159 938.877 71.3172 933.25 60.2898C928.924 51.8102 925.599 41.0271 920.045 33.3894C912.58 23.1254 893.366 33.2497 883.572 33.2497C866.094 33.2497 853.644 40.6732 839.343 49.32C827.601 56.4203 810.639 49.8356 799.098 45.8265C777.571 38.3488 753.932 40.7958 731.392 40.7958C719.589 40.7958 707.193 40.3611 695.688 43.3111C684.936 46.068 673.747 45.1932 663.268 49.5297C648.166 55.7788 630.826 64.6917 614.218 64.6917C607.606 64.6917 598.036 62.953 592.139 66.2289C586.126 69.5695 580.153 74.2162 573.553 76.2904C564.306 79.1967 555.967 85.1316 546.513 87.889C540.132 89.7502 533.113 90.2664 526.6 91.7319C518.553 93.5424 510.969 96.1338 502.634 96.1338H484.258C473.824 96.1338 464.898 90.599 454.842 88.5877C431.914 84.0022 410.419 76.0109 386.578 76.0109C370.998 76.0109 355.406 77.2685 339.904 77.2685C335.703 77.2685 332.363 77.093 328.305 76.0109C309.956 71.1177 292.676 69.7225 273.526 69.7225C260.497 69.7225 247.857 71.6645 234.957 72.2378C227.926 72.5503 222.247 76.0109 214.834 76.0109C206.043 76.0109 196.145 77.3262 187.654 74.7532C179.292 72.2192 171.025 68.5489 163.549 64.0629C158.573 61.0772 151.266 59.2567 147.269 55.2591C142.814 50.804 138.273 53.1728 132.875 51.4861C127.059 49.6686 120.031 48.511 113.94 48.3419C111.104 48.2631 108.254 48.3419 105.416 48.3419C102.732 48.3419 102.164 45.9997 99.8261 45.8265C85.4757 44.7635 74.1741 34.2885 64.3315 24.4459C56.2875 16.4019 45.3118 9.57393 35.3349 4.32296C30.2537 1.64864 10.7607 0.599362 6.40823 4.9518C3.42944 7.9306 4.52171 12.9536 4.52171 16.8998C4.52171 23.7473 7.03708 30.0884 7.03708 37.3022C7.03708 52.6319 8.38788 68.6204 6.75759 83.8364C4.68129 103.215 1.84815 121.236 2.00635 140.851C2.25623 171.837 0.839952 209.115 20.2427 235.667C29.7219 248.638 46.2707 256.686 58.6021 266.62C64.9243 271.713 71.5921 276.89 77.5372 282.411C82.849 287.343 86.5275 293.852 91.9306 298.551C110.859 315.011 133.471 312.455 157.4 312.455Z" fill="#221005"/>
<path d="M468.607 317.486C418.277 311.773 369.059 304.909 318.383 304.909C300.724 304.909 282.857 304.106 265.281 306.167C252.09 307.713 239.208 309.847 225.874 309.94C202.978 310.1 180.32 312.455 157.4 312.455C133.471 312.455 110.859 315.011 91.9306 298.551C86.5275 293.852 82.849 287.343 77.5372 282.411C71.5921 276.89 64.9243 271.713 58.6021 266.62C46.2707 256.686 29.7219 248.638 20.2427 235.667C0.839952 209.115 2.25623 171.837 2.00635 140.851C1.84815 121.236 4.68129 103.215 6.75759 83.8364C8.38788 68.6204 7.03708 52.6319 7.03708 37.3022C7.03708 30.0884 4.52171 23.7473 4.52171 16.8998C4.52171 12.9536 3.42944 7.9306 6.40823 4.9518C10.7607 0.599362 30.2537 1.64864 35.3349 4.32296C45.3118 9.57393 56.2875 16.4019 64.3315 24.4459C74.1742 34.2885 85.4757 44.7635 99.8261 45.8265C102.164 45.9997 102.732 48.3419 105.416 48.3419C108.254 48.3419 111.104 48.2631 113.94 48.3419C120.031 48.511 127.059 49.6686 132.875 51.4861C138.273 53.1728 142.814 50.804 147.269 55.2591C151.266 59.2567 158.573 61.0772 163.549 64.0629C171.025 68.5489 179.292 72.2192 187.654 74.7532C196.145 77.3262 206.043 76.0109 214.834 76.0109C222.247 76.0109 227.926 72.5503 234.957 72.2378C247.857 71.6645 260.497 69.7225 273.526 69.7225C292.676 69.7225 309.956 71.1177 328.305 76.0109C332.363 77.093 335.703 77.2685 339.904 77.2685C355.406 77.2685 370.998 76.0109 386.578 76.0109C410.419 76.0109 431.914 84.0022 454.842 88.5877C464.898 90.599 473.824 96.1338 484.258 96.1338C490.383 96.1338 496.508 96.1338 502.634 96.1338C510.969 96.1338 518.553 93.5424 526.6 91.7319C533.113 90.2664 540.132 89.7502 546.513 87.889C555.967 85.1316 564.306 79.1967 573.553 76.2904C580.153 74.2162 586.126 69.5695 592.139 66.2289C598.036 62.953 607.606 64.6917 614.218 64.6917C630.826 64.6917 648.166 55.7788 663.268 49.5297C673.748 45.1932 684.936 46.068 695.688 43.3111C707.193 40.3611 719.589 40.7958 731.392 40.7958C753.932 40.7958 777.571 38.3488 799.098 45.8265C810.639 49.8356 827.601 56.4203 839.343 49.32C853.644 40.6732 866.095 33.2497 883.572 33.2497C893.366 33.2497 912.58 23.1254 920.045 33.3894C925.599 41.0271 928.924 51.8102 933.25 60.2898C938.877 71.3172 942.859 83.159 946.526 94.946C958.193 132.449 956.587 170.79 956.587 209.605C956.587 239.87 950.877 267.505 926.822 288.28C897.83 313.319 850.216 314.847 813.91 314.971C779.892 315.087 747.278 314.978 714.134 306.446C699.885 302.778 685.725 299.878 671.024 299.878C663.695 299.878 656.286 299.574 649.014 300.647C636.008 302.566 624.358 308.603 611.912 312.455C597.463 316.928 583.274 322.869 569.151 328.316C556.626 333.147 546.717 340.681 533.168 342.64C492.136 348.572 451.722 357.732 410.124 357.732C389.294 357.732 369 358.239 348.428 355.496C303.517 349.508 257.213 352.404 213.437 339.495C198.68 335.144 186.912 328.103 173.68 320.421C168.069 317.163 162.183 314.693 157.19 310.569C151.38 305.769 143.137 303.921 137.836 298.621" stroke="#221005" stroke-width="3" stroke-linecap="round"/>
</svg>
