<svg width="856" height="241" viewBox="0 0 856 241" fill="none" xmlns="http://www.w3.org/2000/svg">
<path d="M77.0891 125.511C62.3634 140.237 39.1809 141.59 19.2543 142.215C18.608 138.584 18.3593 134.511 17.7652 132.432C15.9169 125.963 12.1249 121.038 9.63557 114.964C-0.729078 89.6746 -2.61587 47.4402 17.2159 26.308C32.2526 10.2853 58.0751 6.74208 78.6821 4.0615C108.098 0.234993 139.091 2.90798 168.712 2.90798H364.7C440.837 2.90798 517.039 2.28849 593.153 4.39108C637.393 5.6132 681.656 8.23309 725.423 15.2671C745.155 18.4384 764.608 26.5203 783.374 33.0094C802.288 39.5497 825.204 44.0791 839.786 58.6615C848.725 67.5998 855.207 75.3938 854.013 88.8179C853.022 99.9715 853.078 110.869 850.772 121.885C849.583 127.567 848.439 134.855 845.279 139.793C842.838 143.608 838.649 147.919 835.227 150.998C831.102 154.711 829.115 155.173 823.637 155.173C809.997 155.173 794.795 154.51 784.033 145.285C779.242 141.179 767.993 145.281 762.83 146.219C759.068 146.903 755.793 151.451 753.163 153.964C749.802 157.175 746.148 160.116 742.726 163.302C738.526 167.213 732.717 174.932 727.236 176.925C722.351 178.701 714.942 186.364 714.822 191.536C714.764 194.034 715.58 197.906 714.327 200.16C713.349 201.922 711.665 203.308 710.867 205.104C710.147 206.723 707 208.052 706.912 209.553C706.816 211.188 706.912 212.859 706.912 214.497C706.912 218.944 707.901 222.619 707.901 226.801C707.901 231.836 706.69 232.516 703.451 235.755C695.456 243.75 687.752 234.233 685.05 226.801C681.875 218.071 661.452 229.677 655.498 224.384C651.323 220.673 647.134 217.009 643.139 213.014C640.87 210.745 638.182 208.018 636.712 205.159C635.138 202.098 634.837 197.871 632.757 195.271C628.951 190.514 628.369 185.898 622.87 182.363C618.415 179.499 614.776 177.914 609.522 177.914C605.324 177.914 601.782 174.287 599.36 170.993C595.413 165.625 595.084 153.966 589.088 150.669C580.75 146.083 573.189 147.746 566.732 153.964C561.588 158.917 555.385 156.521 550.198 160.556C547.858 162.376 540.541 161.105 537.619 161.105C534.654 161.105 532.181 161.85 530.313 159.567C526.795 155.267 523.567 150.776 520.151 146.384C513.243 137.502 501.25 145.664 494.334 138.364C488.347 132.045 480.651 129.352 474.01 124.522C468.869 120.783 459.878 118.606 453.577 120.787C450.521 121.844 448.991 124.896 445.886 126.005C443.02 127.029 440.242 128.462 437.592 129.96C432.051 133.092 427.412 138.791 423.146 143.308C419.683 146.975 416.555 147.263 411.775 147.263C407.181 147.263 398.864 145.422 395.241 148.911C392.119 151.917 387.572 158.139 382.992 158.139C377.223 158.139 373.426 158.056 368.216 156.162C361.406 153.685 356.707 147.584 349.43 145.505C340.147 142.853 331.324 141.331 321.306 141.331C307.777 141.331 284.518 140.752 277.307 155.173C272.687 164.414 265.829 158.995 257.807 162.094C253.932 163.591 250.93 165.443 248.634 169.015C247.485 170.803 245.451 173.582 243.196 173.904C232.555 175.424 219.405 169.17 214.523 159.677C213.812 158.294 212.909 152.893 212.051 152.207C210.613 151.056 209.012 149.974 208.151 148.252C205.073 142.096 200.559 144.892 194.529 145.285C190.087 145.575 186.777 148.941 182.829 150.669C180.427 151.719 177.086 151.218 174.534 151.218C163.839 151.218 148.97 151.109 142.84 140.891C138.583 133.796 137.484 125.511 127.514 125.511C120.245 125.511 116.37 122.039 110.157 119.139C106.238 117.31 98.8903 118.46 94.6666 118.59C87.9164 118.797 81.8296 120.77 77.0891 125.511Z" fill="black"/>
<path d="M15.7877 142.319C36.4353 141.703 61.5007 141.099 77.0891 125.511C81.8296 120.77 87.9164 118.797 94.6666 118.59C98.8903 118.46 106.238 117.31 110.157 119.139C116.37 122.039 120.245 125.511 127.514 125.511C137.484 125.511 138.583 133.796 142.84 140.891C148.97 151.109 163.839 151.218 174.534 151.218C177.086 151.218 180.427 151.719 182.829 150.669C186.777 148.941 190.087 145.575 194.529 145.285C200.559 144.892 205.073 142.096 208.151 148.252C209.012 149.974 210.613 151.056 212.051 152.207C212.909 152.893 213.812 158.294 214.523 159.677C219.405 169.17 232.555 175.424 243.196 173.904C245.451 173.582 247.485 170.803 248.634 169.015C250.93 165.443 253.932 163.591 257.807 162.094C265.829 158.995 272.687 164.414 277.307 155.173C284.518 140.752 307.777 141.331 321.306 141.331C331.324 141.331 340.147 142.853 349.43 145.505C356.707 147.584 361.406 153.685 368.216 156.162C373.426 158.056 377.223 158.139 382.992 158.139C387.572 158.139 392.119 151.917 395.241 148.911C398.864 145.422 407.181 147.263 411.775 147.263C416.555 147.263 419.683 146.975 423.146 143.308C427.412 138.791 432.051 133.092 437.592 129.96C440.242 128.462 443.02 127.029 445.886 126.005C448.991 124.896 450.521 121.844 453.577 120.787C459.878 118.606 468.869 120.783 474.01 124.522C480.651 129.352 488.347 132.045 494.334 138.364C501.25 145.664 513.243 137.502 520.151 146.384C523.567 150.776 526.795 155.267 530.313 159.567C532.181 161.85 534.653 161.105 537.619 161.105C540.541 161.105 547.858 162.376 550.198 160.556C555.385 156.521 561.588 158.917 566.732 153.964C573.189 147.746 580.75 146.083 589.088 150.669C595.084 153.966 595.413 165.625 599.36 170.993C601.782 174.287 605.324 177.914 609.522 177.914C614.776 177.914 618.415 179.499 622.87 182.363C628.369 185.898 628.951 190.514 632.757 195.271C634.837 197.871 635.138 202.098 636.712 205.159C638.182 208.018 640.87 210.745 643.139 213.014C647.134 217.009 651.323 220.673 655.498 224.384C661.452 229.677 681.875 218.071 685.05 226.801C687.752 234.233 695.456 243.75 703.451 235.755C706.69 232.516 707.901 231.836 707.901 226.801C707.901 222.619 706.912 218.944 706.912 214.497C706.912 212.859 706.816 211.188 706.912 209.553C707 208.052 710.147 206.723 710.867 205.104C711.665 203.308 713.349 201.922 714.327 200.16C715.58 197.906 714.764 194.034 714.822 191.536C714.942 186.364 722.351 178.701 727.236 176.925C732.717 174.932 738.526 167.213 742.726 163.302C746.148 160.116 749.802 157.175 753.163 153.964C755.793 151.451 759.068 146.903 762.83 146.219C767.993 145.281 779.242 141.179 784.033 145.285C794.795 154.51 809.997 155.173 823.637 155.173C829.115 155.173 831.102 154.711 835.227 150.998C838.649 147.919 842.838 143.608 845.279 139.793C848.439 134.855 849.583 127.567 850.772 121.885C853.078 110.869 853.022 99.9715 854.013 88.8179C855.207 75.3938 848.725 67.5998 839.786 58.6615C825.204 44.0791 802.288 39.5497 783.374 33.0094C764.608 26.5203 745.155 18.4384 725.423 15.2671C681.656 8.23309 637.393 5.6132 593.153 4.39108C517.039 2.28849 440.837 2.90798 364.7 2.90798C299.371 2.90798 234.041 2.90798 168.712 2.90798C139.091 2.90798 108.098 0.234993 78.6821 4.0615C58.0751 6.74208 32.2526 10.2853 17.2159 26.308C-2.61587 47.4402 -0.729078 89.6746 9.63557 114.964C12.1249 121.038 15.9169 125.963 17.7652 132.432C18.9139 136.453 18.7715 147.928 22.7088 149.24" stroke="black" stroke-width="3" stroke-linecap="round"/>
</svg>
