<svg width="898" height="215" viewBox="0 0 898 215" fill="none" xmlns="http://www.w3.org/2000/svg">
<path d="M81.458 178.474C75.9304 177.86 70.5327 177.995 65.3387 179.379C66.1123 181.511 66.8404 185.707 65.6383 187.043C64.7171 188.066 62.6441 185.518 61.9031 185.065C57.9024 182.62 54.2615 175.845 52.4552 171.662C50.7182 167.64 48.4849 163.738 47.0721 159.578C45.6053 155.259 45.5689 150.597 44.1059 146.285C42.5869 141.808 39.7369 135.208 35.2073 132.882C30.6087 130.521 25.8486 132.098 21.2552 130.685C11.4679 127.673 6.08827 108.349 4.28195 100.254C-2.2169 71.1295 4.53223 38.9626 32.7355 24.561C46.7375 17.411 62.5066 14.5141 77.8328 11.6985L78.382 11.5976C105.064 6.69472 131.762 3.12011 158.909 2.53421C203.559 1.57053 248.411 1.94952 293.047 3.35815C344.227 4.97329 395.108 7.53563 446.191 11.268C502.101 15.3531 557.863 14.3498 613.836 16.2117C643.338 17.193 673.454 15.8652 702.602 21.1553C724.419 25.1151 746.056 29.9276 767.748 34.5032C793.848 40.0086 821.306 46.1875 846.408 55.2666C865.458 62.1571 867.887 84.808 873.653 101.792C878.159 115.068 884.576 127.716 889.692 140.792C892.547 148.087 898.936 154.747 893.482 162.929C892.724 164.067 884.032 165.51 882.496 165.51C877.608 165.51 871.262 164.486 866.732 166.499C860.794 169.138 855.377 171.986 849.484 174.848C845.173 176.942 840.67 179.331 838.553 183.802C836.481 188.175 831.076 187.717 826.743 187.208C822.908 186.756 819.496 178.429 818.339 175.343C817.107 172.059 815.847 168.713 814.274 165.565C813.374 163.766 809.875 162.777 808.451 161.116C805.825 158.052 798.23 152.754 794.334 151.888C788.1 150.502 781.354 151.841 775.768 154.634C771.944 156.546 768.261 159.578 763.903 159.578C758.361 159.578 752.555 158.624 748.084 162.599C741.325 168.607 737.561 174.252 728.529 177.155C717.126 180.821 707.768 186.251 698.702 194.184C694.316 198.021 689.38 199.26 683.651 197.589C676.275 195.438 669.427 195.465 662.613 191.767C657.77 189.137 653.806 187.262 648.222 187.262C645.448 187.262 642.976 186.891 640.312 186.054C637.084 185.04 637.042 181.713 635.313 179.408C632.438 175.574 623.62 172.564 620.043 176.936C617.752 179.735 612.455 181.824 608.672 180.122C599.705 176.086 590.638 178.63 582.745 183.307C578.256 185.968 572.089 186.696 572.089 193.415C572.089 197.295 573.078 200.577 573.078 204.565C573.078 214.135 554.703 212.969 548.36 212.969C542.92 212.969 542.356 206.895 540.45 203.082C536.978 196.139 529.128 194.439 522.158 191.712C513.826 188.451 507.765 180.466 498.923 177.979C491.472 175.884 487.989 176.984 484.641 183.307C482.09 188.126 476.029 195.172 470.25 195.172C465.548 195.172 462.39 190.004 457.781 189.295C450.724 188.209 442.785 189.24 435.644 189.24C431.036 189.24 427.321 193.796 423.01 195.392C419.025 196.868 417.356 205.866 413.892 206.048C407.484 206.386 395.873 206.354 393.183 199.182C391.729 195.302 391.538 191.219 390.602 187.208C389.236 181.354 385.75 179.429 381.319 175.947C376.452 172.123 366.152 170.454 360.116 170.454C353.297 170.454 348.389 169.712 343.198 174.903C339.318 178.783 335.72 183.307 330.069 183.307C319.086 183.307 308.618 181.068 297.826 179.408C282.838 177.102 277.655 149.133 259.869 160.567C252.746 165.146 248.626 170.454 239.655 170.454C236.496 170.454 234.686 168.545 231.745 168.477C225.56 168.333 219.361 169.802 213.234 170.509C206.312 171.308 199.637 174.477 193.569 177.815C190.036 179.758 189.328 181.33 185 181.33C176.647 181.33 171.365 178.051 163.523 175.617C156.292 173.373 151.858 177.549 145.945 180.561C140.764 183.201 134.867 184.973 129.137 186.054C124.727 186.886 122.891 189.242 119.085 191.272C109.181 196.554 102.664 194.734 95.0806 187.757C91.2724 184.253 86.9473 179.084 81.458 178.474Z" fill="#221005"/>
<path d="M59.9256 181.33C66.7439 178.183 73.9821 177.643 81.458 178.474C86.9473 179.084 91.2724 184.253 95.0806 187.757C102.664 194.734 109.181 196.554 119.085 191.272C122.891 189.242 124.727 186.886 129.137 186.054C134.867 184.973 140.764 183.201 145.945 180.561C151.858 177.549 156.292 173.373 163.523 175.617C171.365 178.051 176.647 181.33 185 181.33C189.328 181.33 190.036 179.758 193.569 177.815C199.637 174.477 206.312 171.308 213.234 170.509C219.361 169.802 225.56 168.333 231.745 168.477C234.686 168.545 236.496 170.454 239.655 170.454C248.626 170.454 252.746 165.146 259.869 160.567C277.655 149.133 282.838 177.102 297.826 179.408C308.618 181.068 319.086 183.307 330.069 183.307C335.72 183.307 339.318 178.783 343.198 174.903C348.389 169.712 353.297 170.454 360.116 170.454C366.152 170.454 376.452 172.123 381.319 175.947C385.75 179.429 389.236 181.354 390.602 187.208C391.538 191.219 391.729 195.302 393.183 199.182C395.873 206.354 407.484 206.386 413.892 206.048C417.356 205.866 419.025 196.868 423.01 195.392C427.321 193.796 431.036 189.24 435.644 189.24C442.785 189.24 450.724 188.209 457.781 189.295C462.39 190.004 465.548 195.172 470.25 195.172C476.029 195.172 482.09 188.126 484.641 183.307C487.989 176.984 491.472 175.884 498.923 177.979C507.765 180.466 513.826 188.451 522.158 191.712C529.128 194.439 536.978 196.139 540.45 203.082C542.356 206.895 542.92 212.969 548.36 212.969C554.703 212.969 573.078 214.135 573.078 204.565C573.078 200.577 572.089 197.295 572.089 193.415C572.089 186.696 578.256 185.968 582.745 183.307C590.638 178.63 599.705 176.086 608.672 180.122C612.455 181.824 617.752 179.735 620.043 176.936C623.62 172.564 632.438 175.574 635.313 179.408C637.042 181.713 637.084 185.04 640.312 186.054C642.976 186.891 645.448 187.262 648.222 187.262C653.806 187.262 657.77 189.137 662.613 191.767C669.427 195.465 676.275 195.438 683.651 197.589C689.38 199.26 694.316 198.021 698.702 194.184C707.768 186.251 717.126 180.821 728.529 177.155C737.561 174.252 741.325 168.607 748.084 162.599C752.555 158.624 758.361 159.578 763.903 159.578C768.261 159.578 771.944 156.546 775.768 154.634C781.354 151.841 788.1 150.502 794.334 151.888C798.23 152.754 805.825 158.052 808.451 161.116C809.875 162.777 813.374 163.766 814.274 165.565C815.847 168.713 817.107 172.059 818.339 175.343C819.496 178.429 822.908 186.756 826.743 187.208C831.075 187.717 836.481 188.175 838.553 183.802C840.67 179.331 845.173 176.942 849.484 174.848C855.377 171.986 860.794 169.138 866.732 166.499C871.262 164.486 877.608 165.51 882.496 165.51C884.032 165.51 892.723 164.067 893.482 162.929C898.936 154.747 892.547 148.087 889.692 140.792C884.576 127.716 878.159 115.068 873.653 101.792C867.887 84.808 865.458 62.1571 846.408 55.2666C821.306 46.1875 793.848 40.0086 767.748 34.5032C746.056 29.9276 724.419 25.1151 702.602 21.1553C673.454 15.8652 643.338 17.193 613.836 16.2117C557.863 14.3498 502.101 15.3531 446.191 11.268C395.108 7.53563 344.226 4.97329 293.047 3.35815C248.411 1.94952 203.559 1.57053 158.909 2.53421C131.762 3.12011 105.064 6.69472 78.382 11.5976C62.8837 14.4454 46.9048 17.3256 32.7355 24.561C4.53223 38.9626 -2.2169 71.1295 4.28195 100.254C6.08828 108.349 11.4679 127.673 21.2552 130.685C25.8486 132.098 30.6087 130.521 35.2073 132.882C39.7369 135.208 42.5869 141.808 44.1059 146.285C45.5689 150.597 45.6053 155.259 47.0721 159.578C48.4849 163.738 50.7182 167.64 52.4552 171.662C54.2615 175.845 57.9024 182.62 61.9031 185.065C62.6441 185.518 64.7171 188.066 65.6383 187.043C67.0891 185.431 65.7282 179.652 64.8693 178.364" stroke="#221005" stroke-width="3" stroke-linecap="round"/>
</svg>
