<svg width="882" height="289" viewBox="0 0 882 289" fill="none" xmlns="http://www.w3.org/2000/svg">
<path d="M804.603 218.086C827.131 218.086 847.207 210.766 867.481 201.186C871.341 187.682 873.755 173.712 874.364 159.696C874.824 149.112 879.834 139.508 880.187 128.936C880.591 116.795 878.92 104.705 875.243 93.1214C871.101 80.0741 860.824 66.8844 852.612 56.2087C839.973 39.7787 821.774 28.724 802.132 22.7566C779.355 15.8372 755.638 13.1462 732.041 11.2214C697.638 8.41508 663.518 4.8962 628.994 3.53127C550.343 0.421843 471.42 2.91834 392.741 3.47634C311.429 4.05302 229.025 0.141447 149.129 17.5932C122.369 23.4385 95.7668 27.9313 70.9089 39.7848C60.5029 44.7469 48.4562 50.2477 39.8188 58.0214C24.2039 72.0749 6.11115 95.6445 2.85114 117.016C0.958374 129.424 2.75177 142.258 3.18073 154.698C3.50354 164.059 4.69684 173.286 6.97089 182.382C9.63037 193.02 13.9812 203.063 16.6385 213.692C17.7947 218.317 19.2796 221.865 21.5822 226.051C24.2713 230.94 27.9969 235.243 32.8976 238.081C38.6929 241.436 43.7114 246.508 49.4864 249.945C54.5403 252.954 62.2684 259.572 64.4821 265.106C66.3171 269.693 68.1299 275.708 68.492 280.596C68.9201 286.376 77.9403 290.427 80.3568 283.782C82.6515 277.472 86.5657 274.772 91.6723 271.368C98.9559 266.512 100.849 257.35 103.317 249.945C105.105 244.583 112.95 247.247 116.72 244.782C120.198 242.508 119.535 235.953 122.378 232.478C128.996 224.389 149.54 222.931 150.557 236.652C151.013 242.814 153.75 245.998 157.972 250.22C159.996 252.244 163.506 253.326 165.937 255.109C167.904 256.551 171.631 257.549 174.067 257.636C180.656 257.871 184.046 257.547 189.337 253.681C194.01 250.266 196.936 244.908 201.477 241.376C206.58 237.407 211.813 232.117 218.779 231.929C224.389 231.777 230.032 231.929 235.643 231.929C239.704 231.929 245.287 232.168 248.881 234.455C252.024 236.456 252.385 237.861 256.406 237.861C263.913 237.861 273.067 237.539 278.872 232.148C284.289 227.119 289.742 225.007 296.889 225.007C303.499 225.007 309.175 224.468 315.455 222.041C325.285 218.244 336.71 202.89 348.358 212.209C353.446 216.279 359.297 218.852 364.617 222.536C367.891 224.802 372.169 224.019 375.988 224.019C387.211 224.019 395.593 231.386 404.112 238.355C408.835 242.22 413.892 247.63 419.492 250.275C425.088 252.918 433.543 248.827 437.674 245.331C442.864 240.94 442.488 237.861 449.648 237.861H464.205C468.817 237.861 475.215 240.54 479.695 238.3C484.168 236.064 487.738 230.895 491.889 227.974C497.152 224.27 507.402 221.185 513.641 221.052C519.953 220.918 527.019 221.48 532.208 225.557C543.252 234.235 554.064 233.906 567.418 233.906C573.709 233.906 579.481 233.233 585.105 235.829C587.091 236.745 588.971 237.404 590.048 239.344C591.083 241.206 589.817 243.369 591.751 244.782C594.948 247.118 598.266 248.772 601.419 250.934C603.876 252.619 606.135 252.244 608.56 253.681C613.653 256.699 624.175 254.669 630.037 254.669C633.243 254.669 634.852 255.098 637.563 256.647C640.105 258.1 640.15 262.018 643.44 262.524C648.428 263.292 653.84 262.39 658.546 260.821C664.095 258.972 666.783 252.692 673.102 252.692C678.201 252.692 682.113 252.855 686.23 249.726C689.635 247.138 693.701 239.826 695.568 235.883C696.941 232.985 700.313 224.838 703.753 224.074C705.952 223.585 714.159 223.114 715.343 225.007C717.169 227.93 722.104 230.94 725.45 230.94C735.26 230.94 741.895 224.412 749.729 219.624C758.195 214.451 765.338 212.154 775.216 212.154C780.558 212.154 785.263 212.059 790.377 213.912C795.001 215.587 799.579 218.086 804.603 218.086Z" fill="#311506"/>
<path d="M869.365 200.289C848.448 210.306 827.828 218.086 804.603 218.086C799.579 218.086 795.001 215.587 790.377 213.912C785.263 212.059 780.558 212.154 775.216 212.154C765.338 212.154 758.195 214.451 749.729 219.624C741.895 224.412 735.26 230.94 725.45 230.94C722.104 230.94 717.169 227.93 715.343 225.007C714.159 223.114 705.952 223.585 703.753 224.074C700.313 224.838 696.941 232.985 695.568 235.883C693.701 239.826 689.635 247.138 686.23 249.726C682.113 252.855 678.201 252.692 673.102 252.692C666.783 252.692 664.095 258.972 658.546 260.821C653.84 262.39 648.428 263.292 643.44 262.524C640.15 262.018 640.105 258.1 637.563 256.647C634.852 255.098 633.243 254.669 630.037 254.669C624.175 254.669 613.653 256.699 608.56 253.681C606.135 252.244 603.876 252.619 601.419 250.934C598.266 248.772 594.948 247.118 591.751 244.782C589.817 243.369 591.083 241.206 590.048 239.344C588.971 237.404 587.091 236.745 585.105 235.829C579.481 233.233 573.709 233.906 567.418 233.906C554.064 233.906 543.252 234.235 532.208 225.557C527.019 221.48 519.953 220.918 513.641 221.052C507.402 221.185 497.152 224.27 491.889 227.974C487.738 230.895 484.168 236.064 479.695 238.3C475.215 240.54 468.817 237.861 464.205 237.861C459.353 237.861 454.501 237.861 449.648 237.861C442.488 237.861 442.864 240.94 437.674 245.331C433.543 248.827 425.088 252.918 419.492 250.275C413.892 247.63 408.835 242.22 404.112 238.355C395.593 231.386 387.211 224.019 375.988 224.019C372.169 224.019 367.892 224.802 364.617 222.536C359.297 218.852 353.446 216.279 348.358 212.209C336.71 202.89 325.285 218.244 315.455 222.041C309.175 224.468 303.499 225.007 296.889 225.007C289.742 225.007 284.288 227.119 278.872 232.148C273.067 237.539 263.913 237.861 256.406 237.861C252.385 237.861 252.024 236.456 248.881 234.455C245.287 232.168 239.704 231.929 235.643 231.929C230.032 231.929 224.389 231.777 218.779 231.929C211.813 232.117 206.58 237.407 201.477 241.376C196.936 244.908 194.01 250.266 189.337 253.681C184.046 257.547 180.656 257.871 174.067 257.636C171.631 257.549 167.904 256.551 165.937 255.109C163.506 253.326 159.996 252.244 157.972 250.22C153.75 245.998 151.013 242.814 150.557 236.652C149.54 222.931 128.996 224.389 122.378 232.478C119.535 235.953 120.198 242.508 116.72 244.782C112.95 247.247 105.105 244.583 103.317 249.945C100.849 257.35 98.9558 266.512 91.6723 271.368C86.5657 274.772 82.6515 277.472 80.3568 283.782C77.9403 290.427 68.9201 286.376 68.492 280.596C68.13 275.708 66.317 269.693 64.4821 265.106C62.2684 259.572 54.5403 252.954 49.4864 249.945C43.7113 246.508 38.6929 241.436 32.8976 238.081C27.9969 235.243 24.2713 230.94 21.5822 226.051C19.2796 221.865 17.7947 218.317 16.6385 213.692C13.9812 203.063 9.63037 193.02 6.97089 182.382C4.69683 173.286 3.50354 164.059 3.18073 154.698C2.75179 142.258 0.958364 129.424 2.85114 117.016C6.11116 95.6445 24.2038 72.0749 39.8188 58.0214C48.4562 50.2477 60.5029 44.7469 70.9089 39.7848C95.7668 27.9313 122.369 23.4385 149.129 17.5932C229.025 0.141447 311.429 4.05302 392.741 3.47634C471.42 2.91834 550.343 0.421843 628.994 3.53127C663.518 4.8962 697.638 8.41508 732.041 11.2214C755.638 13.1462 779.355 15.8372 802.132 22.7566C821.774 28.724 839.973 39.7787 852.612 56.2087C860.824 66.8844 871.101 80.0741 875.243 93.1214C878.92 104.705 880.591 116.795 880.187 128.936C879.834 139.508 874.824 149.112 874.364 159.696C873.738 174.086 871.211 188.428 867.168 202.267C865.372 208.415 864.586 214.425 860.687 219.624C859.114 221.721 858.489 222.372 858.489 225.007" stroke="#311506" stroke-width="3" stroke-linecap="round"/>
</svg>
