<svg width="853" height="294" viewBox="0 0 853 294" fill="none" xmlns="http://www.w3.org/2000/svg">
<path d="M48.3228 268.599C42.5578 268.599 37.0642 269.148 31.43 270.021C32.1986 266.763 32.9975 263.489 32.9975 259.646C32.9975 253.513 28.8125 247.386 27.0651 241.684C23.0086 228.447 18.3658 215.497 12.1792 203.123C0.559616 179.884 0.835596 154.383 3.55523 128.968C4.94199 116.009 8.35704 104.766 14.2116 93.1544C19.5084 82.649 23.8461 71.4641 34.4257 65.1403C52.409 54.3908 75.0978 48.6541 95.0679 43.0036C111.822 38.2631 128.929 35.1172 145.878 31.1938C191.578 20.6149 236.604 10.2223 283.367 5.65152C333.018 0.798364 383.717 1.7411 433.544 3.06983C484.15 4.41933 534.057 10.9726 584.161 17.791C626.718 23.5823 668.183 31.6655 709.51 43.2783C736.038 50.7324 764.294 57.4054 789.543 68.7107C798.716 72.8179 805.134 76.7622 811.515 84.6952C822.284 98.0838 827.861 115.613 833.157 131.605C838.784 148.597 846.359 166.007 849.471 183.678C851.917 197.567 851.58 213.319 849.141 227.183C848.127 232.946 845.638 236.316 840.792 239.432C837.452 241.579 834.585 241.822 830.905 243.661C828.526 244.851 827.267 247.397 824.972 248.605C823.471 249.395 820.636 248.825 818.985 248.825C814.063 248.825 809.276 247.836 804.209 247.836C799.704 247.836 795.695 251.706 792.784 254.812C787.116 260.857 784.732 259.343 777.733 257.943C772.113 256.819 767.147 256.929 763.891 260.909C759.944 265.733 757.382 266.622 751.312 266.622C748.873 266.622 746.32 266.408 743.896 266.677C741.198 266.977 739.864 269.486 737.195 269.588C732.84 269.756 730.833 269.7 727.582 267.171C719.319 260.745 711.842 249.814 700.886 249.814C695.381 249.814 690.456 256.443 686.55 259.481C681.332 263.54 679.002 262.595 673.641 260.25C669.843 258.588 662.93 259.701 658.865 259.701C651.723 259.701 647.336 261.483 644.584 268.49C642.205 274.544 637.488 279.614 630.192 276.07C624.711 273.408 622.752 266.291 617.833 262.667C612.521 258.753 610.302 257.723 603.716 257.723C597.279 257.723 590.645 258.431 584.765 255.197C579.753 252.44 574.578 243.111 568.671 242.892C561.927 242.643 561.472 244.433 556.531 248.276C551.762 251.985 548.696 255.26 543.184 257.229C539.857 258.417 536.624 257.542 533.296 259.207C530.331 260.689 527.139 261.609 524.398 263.436C520.655 265.931 515.45 266.362 511.324 268.05C508.324 269.278 507.462 270.577 504.129 270.577C498.449 270.577 493.07 270.72 487.815 268.16C481.701 265.182 472.683 261.158 465.513 263.766C460.413 265.62 457.14 270.872 453.978 274.971C447.975 282.752 440.547 276.053 433.489 280.464C428.953 283.3 431.045 287.385 425.524 287.385C423.038 287.385 419.601 286.608 417.615 288.374C416.274 289.566 414.252 292.329 412.451 292.329C407.546 292.329 400.798 284.979 396.302 282.881C388.121 279.063 380.214 276.011 372.682 270.797C369.732 268.754 354.044 261.502 351.369 266.183C350.007 268.566 348.824 268.95 347.909 272.06C347.21 274.437 345.961 279.916 342.471 279.256C336.916 278.205 332.796 274.532 327.145 274.532C317.533 274.532 305.114 275.068 301.438 264.04C300.319 260.682 299.284 251.332 295.012 250.857C291.368 250.452 287.229 250.606 283.586 250.857C275.427 251.42 267.711 252.78 259.417 252.78C250.157 252.78 239.614 248.982 232.721 257.943C228.21 263.809 214.451 259.701 208.003 259.701C203.979 259.701 200.098 261.238 196.138 261.898C193.087 262.407 188.498 262.495 185.812 264.205C180.567 267.542 177.469 267.611 171.2 267.611C165.164 267.611 159.325 268.088 153.568 266.073C149.303 264.58 143.526 261.982 138.792 263.876C134.05 265.772 131.195 268.599 125.883 268.599C122.688 268.599 119.277 268.941 116.106 268.545C113.823 268.259 112.904 266.622 110.338 266.622C103.358 266.622 101.411 269.895 95.837 273.983C90.1805 278.131 80.353 279.476 73.5355 279.476C66.4055 279.476 62.4459 276.725 56.7271 273.049C53.7622 271.143 52.1558 268.599 48.3228 268.599Z" fill="#47230E"/>
<path d="M28.0538 270.577C34.8932 269.387 41.4131 268.599 48.3228 268.599C52.1558 268.599 53.7622 271.143 56.7271 273.049C62.4459 276.725 66.4055 279.476 73.5355 279.476C80.353 279.476 90.1805 278.131 95.837 273.983C101.411 269.895 103.358 266.622 110.338 266.622C112.904 266.622 113.823 268.259 116.106 268.545C119.277 268.941 122.688 268.599 125.883 268.599C131.195 268.599 134.05 265.772 138.792 263.876C143.526 261.982 149.303 264.58 153.568 266.073C159.325 268.088 165.164 267.611 171.2 267.611C177.469 267.611 180.567 267.542 185.812 264.205C188.498 262.495 193.087 262.407 196.138 261.898C200.098 261.238 203.979 259.701 208.003 259.701C214.451 259.701 228.21 263.809 232.721 257.943C239.614 248.982 250.157 252.78 259.417 252.78C267.711 252.78 275.427 251.42 283.586 250.857C287.229 250.606 291.368 250.452 295.012 250.857C299.284 251.332 300.319 260.682 301.438 264.04C305.114 275.068 317.533 274.532 327.145 274.532C332.796 274.532 336.916 278.205 342.471 279.256C345.961 279.916 347.21 274.437 347.909 272.06C348.824 268.95 350.007 268.566 351.369 266.183C354.044 261.502 369.732 268.754 372.682 270.797C380.214 276.011 388.121 279.063 396.302 282.881C400.798 284.979 407.546 292.329 412.451 292.329C414.252 292.329 416.274 289.566 417.615 288.374C419.601 286.608 423.038 287.385 425.524 287.385C431.045 287.385 428.953 283.3 433.489 280.464C440.547 276.053 447.975 282.752 453.978 274.971C457.14 270.872 460.413 265.62 465.513 263.766C472.683 261.158 481.701 265.182 487.815 268.16C493.07 270.72 498.449 270.577 504.129 270.577C507.462 270.577 508.324 269.278 511.324 268.05C515.45 266.362 520.655 265.931 524.398 263.436C527.139 261.609 530.331 260.689 533.296 259.207C536.624 257.542 539.857 258.417 543.184 257.229C548.696 255.26 551.762 251.985 556.531 248.276C561.472 244.433 561.927 242.643 568.671 242.892C574.578 243.111 579.753 252.44 584.765 255.197C590.645 258.431 597.279 257.723 603.716 257.723C610.302 257.723 612.521 258.753 617.833 262.667C622.752 266.291 624.711 273.408 630.192 276.07C637.488 279.614 642.205 274.544 644.584 268.49C647.336 261.483 651.723 259.701 658.865 259.701C662.93 259.701 669.843 258.588 673.641 260.25C679.002 262.596 681.332 263.54 686.55 259.481C690.456 256.443 695.381 249.814 700.886 249.814C711.842 249.814 719.319 260.745 727.582 267.171C730.833 269.7 732.84 269.756 737.195 269.588C739.864 269.486 741.198 266.977 743.896 266.677C746.32 266.408 748.873 266.622 751.312 266.622C757.382 266.622 759.944 265.733 763.891 260.909C767.147 256.929 772.113 256.819 777.733 257.943C784.732 259.343 787.116 260.857 792.784 254.812C795.695 251.706 799.704 247.836 804.209 247.836C809.276 247.836 814.064 248.825 818.985 248.825C820.636 248.825 823.471 249.395 824.972 248.605C827.267 247.397 828.526 244.851 830.905 243.661C834.585 241.822 837.452 241.579 840.792 239.432C845.638 236.316 848.127 232.946 849.141 227.183C851.58 213.319 851.917 197.567 849.471 183.678C846.359 166.007 838.784 148.597 833.157 131.605C827.861 115.613 822.284 98.0838 811.515 84.6952C805.134 76.7622 798.716 72.8179 789.543 68.7107C764.294 57.4054 736.038 50.7324 709.51 43.2783C668.183 31.6655 626.718 23.5823 584.161 17.791C534.057 10.9726 484.15 4.41933 433.544 3.06983C383.717 1.7411 333.018 0.798364 283.367 5.65152C236.604 10.2223 191.578 20.6149 145.878 31.1938C128.929 35.1172 111.822 38.2631 95.0679 43.0036C75.0978 48.6541 52.409 54.3908 34.4257 65.1403C23.8461 71.4641 19.5084 82.649 14.2116 93.1544C8.35704 104.766 4.94199 116.009 3.55523 128.968C0.835596 154.383 0.559616 179.884 12.1792 203.123C18.3658 215.497 23.0086 228.447 27.0651 241.684C28.8125 247.386 32.9975 253.513 32.9975 259.646C32.9975 267.051 30.0313 272.343 30.0313 279.476" stroke="#47230E" stroke-width="3" stroke-linecap="round"/>
</svg>
