<svg width="124" height="181" viewBox="0 0 124 181" fill="none" xmlns="http://www.w3.org/2000/svg">
<path d="M9 2L115 31.7916V181H9V2Z" fill="#040404"/>
<line x1="5.26456" y1="1.03563" x2="118.265" y2="32.0356" stroke="black" stroke-width="2"/>
<g clip-path="url(#clip0_43_2)">
<path d="M56 57H68L124 181H0L56 57Z" fill="url(#paint0_linear_43_2)"/>
</g>
<g clip-path="url(#clip1_43_2)">
<rect x="34" y="64" width="56" height="117" fill="#221005"/>
<path d="M56 57H68L124 181H0L56 57Z" fill="url(#paint1_linear_43_2)"/>
<rect x="49" y="77" width="25" height="25" fill="#FFF7AC"/>
<rect x="49" y="90" width="1" height="25" transform="rotate(-90 49 90)" fill="#47230E"/>
<rect x="49" y="90" width="1" height="25" transform="rotate(-90 49 90)" fill="#47230E"/>
<rect x="49" y="90" width="1" height="25" transform="rotate(-90 49 90)" fill="#47230E"/>
<rect x="49" y="90" width="1" height="25" transform="rotate(-90 49 90)" fill="#47230E"/>
<rect x="61" y="77" width="1" height="25" fill="#47230E"/>
<rect x="61" y="77" width="1" height="25" fill="#47230E"/>
<rect x="61" y="77" width="1" height="25" fill="#47230E"/>
<rect x="61" y="77" width="1" height="25" fill="#47230E"/>
</g>
<path d="M56 57H68L124 181H0L56 57Z" fill="url(#paint2_linear_43_2)"/>
<path d="M56 57C60.0621 50.75 64.0621 50.75 68.1244 57L56 57Z" fill="#262626"/>
<defs>
<linearGradient id="paint0_linear_43_2" x1="62" y1="57" x2="62" y2="181" gradientUnits="userSpaceOnUse">
<stop stop-color="#311506"/>
<stop offset="1" stop-color="#311506" stop-opacity="0"/>
</linearGradient>
<linearGradient id="paint1_linear_43_2" x1="62" y1="57" x2="62" y2="181" gradientUnits="userSpaceOnUse">
<stop stop-color="#AA5423" stop-opacity="0.45"/>
<stop offset="1" stop-color="#AA5423" stop-opacity="0"/>
</linearGradient>
<linearGradient id="paint2_linear_43_2" x1="62" y1="57" x2="62" y2="181" gradientUnits="userSpaceOnUse">
<stop stop-color="#FFFB9D" stop-opacity="0.25"/>
<stop offset="1" stop-color="#FFFB9D" stop-opacity="0"/>
</linearGradient>
<clipPath id="clip0_43_2">
<rect width="106" height="134" fill="white" transform="translate(9 47)"/>
</clipPath>
<clipPath id="clip1_43_2">
<rect width="56" height="117" fill="white" transform="translate(34 64)"/>
</clipPath>
</defs>
</svg>
