<svg width="305" height="265" viewBox="0 0 305 265" fill="none" xmlns="http://www.w3.org/2000/svg">
<g clip-path="url(#clip0_49_150)">
<path d="M95.1945 28.8892L201.194 58.6808V207.889H95.1945V28.8892Z" fill="#040404"/>
<line x1="91.459" y1="27.9249" x2="204.459" y2="58.9249" stroke="black" stroke-width="2"/>
<g clip-path="url(#clip1_49_150)">
<rect width="56" height="117" transform="translate(120.194 90.8893)" fill="black"/>
<rect x="95.1944" y="188.889" width="106" height="19" fill="#5E2B0E"/>
<rect x="95.1944" y="188.889" width="106" height="19" fill="url(#paint0_radial_49_150)" fill-opacity="0.96"/>
<line x1="150.444" y1="188.876" x2="151.444" y2="207.876" stroke="#47230E" stroke-width="0.5"/>
<line x1="146.444" y1="188.902" x2="145.444" y2="207.902" stroke="#47230E" stroke-width="0.5"/>
<line x1="142.443" y1="188.915" x2="140.443" y2="207.915" stroke="#47230E" stroke-width="0.5"/>
<line x1="138.441" y1="188.928" x2="135.441" y2="207.928" stroke="#47230E" stroke-width="0.5"/>
<line x1="134.439" y1="188.941" x2="130.439" y2="207.941" stroke="#47230E" stroke-width="0.5"/>
<line x1="130.433" y1="188.965" x2="124.433" y2="207.965" stroke="#47230E" stroke-width="0.5"/>
<line x1="126.425" y1="188.986" x2="118.425" y2="207.986" stroke="#47230E" stroke-width="0.5"/>
<line x1="122.42" y1="188.996" x2="113.42" y2="207.996" stroke="#47230E" stroke-width="0.5"/>
<line x1="154.443" y1="188.863" x2="156.443" y2="207.863" stroke="#47230E" stroke-width="0.5"/>
<line x1="158.441" y1="188.85" x2="161.441" y2="207.85" stroke="#47230E" stroke-width="0.5"/>
<line x1="162.439" y1="188.838" x2="166.439" y2="207.838" stroke="#47230E" stroke-width="0.5"/>
<line x1="166.436" y1="188.826" x2="171.436" y2="207.826" stroke="#47230E" stroke-width="0.5"/>
<line x1="170.433" y1="188.814" x2="176.433" y2="207.814" stroke="#47230E" stroke-width="0.5"/>
<line x1="174.425" y1="188.792" x2="182.425" y2="207.792" stroke="#47230E" stroke-width="0.5"/>
<path d="M131.694 191.639H131.483L131.448 191.848L129.948 200.848L129.899 201.139H130.194H166.194H166.49L166.441 200.848L164.941 191.848L164.906 191.639H164.694H131.694Z" fill="url(#paint1_linear_49_150)" stroke="#311506" stroke-width="0.5"/>
<path d="M164.694 191.889V200.889H166.194L164.694 191.889Z" fill="#230F04"/>
<path d="M131.694 191.889V200.889H130.194L131.694 191.889Z" fill="#230F04"/>
<line x1="148.444" y1="191.889" x2="148.444" y2="200.889" stroke="#311506" stroke-width="0.5"/>
<line x1="156.444" y1="191.889" x2="156.444" y2="200.889" stroke="#311506" stroke-width="0.5"/>
<line x1="140.444" y1="191.889" x2="140.444" y2="200.889" stroke="#311506" stroke-width="0.5"/>
<line x1="160.444" y1="191.889" x2="160.444" y2="200.889" stroke="#311506" stroke-width="0.5"/>
<line x1="152.444" y1="191.889" x2="152.444" y2="200.889" stroke="#311506" stroke-width="0.5"/>
<line x1="144.444" y1="191.889" x2="144.444" y2="200.889" stroke="#311506" stroke-width="0.5"/>
<line x1="135.444" y1="191.889" x2="135.444" y2="200.889" stroke="#311506" stroke-width="0.5"/>
<rect x="120.194" y="90.8893" width="56" height="98" fill="url(#paint2_linear_49_150)"/>
<line x1="120.194" y1="149.639" x2="176.194" y2="149.639" stroke="#CD962C" stroke-width="0.5"/>
<line x1="120.194" y1="120.639" x2="176.194" y2="120.639" stroke="#C68E23" stroke-width="0.5"/>
<line x1="120.194" y1="106.639" x2="176.194" y2="106.639" stroke="#C68E23" stroke-width="0.5"/>
<line x1="120.194" y1="135.639" x2="176.194" y2="135.639" stroke="#CD962C" stroke-width="0.5"/>
<line x1="120.194" y1="163.639" x2="176.194" y2="163.639" stroke="#CD962C" stroke-width="0.5"/>
<line x1="120.194" y1="183.639" x2="176.194" y2="183.639" stroke="#CD962C" stroke-width="0.5"/>
<line x1="120.194" y1="170.639" x2="176.194" y2="170.639" stroke="#CD962C" stroke-width="0.5"/>
<line x1="120.194" y1="156.639" x2="176.194" y2="156.639" stroke="#CD962C" stroke-width="0.5"/>
<line x1="120.194" y1="142.639" x2="176.194" y2="142.639" stroke="#CD962C" stroke-width="0.5"/>
<line x1="120.194" y1="128.639" x2="176.194" y2="128.639" stroke="#CB9329" stroke-width="0.5"/>
<line x1="120.194" y1="113.639" x2="176.194" y2="113.639" stroke="#C68E23" stroke-width="0.5"/>
<line x1="120.194" y1="99.6393" x2="176.194" y2="99.6393" stroke="#C68E23" stroke-width="0.5"/>
<line x1="120.194" y1="92.6393" x2="176.194" y2="92.6393" stroke="#C68E23" stroke-width="0.5"/>
<line x1="120.194" y1="177.639" x2="176.194" y2="177.639" stroke="#CD962C" stroke-width="0.5"/>
<path d="M120.194 90.8893L173.532 92.3869V205.508L120.194 207.889V90.8893Z" fill="#221005"/>
<path d="M135.194 103.889L160.194 104.311V128.531L135.194 128.889V103.889Z" fill="#FFF7AC"/>
<path d="M135.194 116.889V115.889L160.194 115.969V116.807L135.194 116.889Z" fill="#221005"/>
<rect x="147.194" y="103.889" width="1" height="25" fill="#221005"/>
</g>
<rect x="208.61" y="81.417" width="1.91023" height="10.3168" transform="rotate(69.6763 208.61 81.417)" fill="black"/>
<path d="M209.278 83.1893L207.214 83.5801L204.241 74.099C204.88 72.9945 204.855 73.3102 205.695 73.5148L209.278 83.1893Z" fill="black"/>
<path d="M214.803 81.9493C207.426 81.6502 199.941 67.6158 203.336 60.6739L214.803 81.9493Z" fill="black"/>
<path d="M211.988 69.9132C212.327 70.2172 212.406 70.4203 212.463 70.7935L207.418 74.0804L206.469 72.3198L211.988 69.9132Z" fill="black"/>
<line x1="131.382" y1="11.9916" x2="135.698" y2="56.0405" stroke="black"/>
<line x1="116.344" y1="14.2999" x2="161.793" y2="7.44711" stroke="black" stroke-width="0.5"/>
<line x1="109.092" y1="13.551" x2="123.721" y2="15.0458" stroke="black" stroke-width="0.5"/>
<line x1="109.552" y1="11.5031" x2="109.064" y2="16.28" stroke="black" stroke-width="0.5"/>
<line x1="124.188" y1="12.9314" x2="123.7" y2="17.7084" stroke="black" stroke-width="0.5"/>
<line x1="153.497" y1="6.558" x2="168.126" y2="8.05279" stroke="black" stroke-width="0.5"/>
<line x1="153.958" y1="4.51009" x2="153.47" y2="9.28702" stroke="black" stroke-width="0.5"/>
<line x1="168.593" y1="5.93844" x2="168.105" y2="10.7154" stroke="black" stroke-width="0.5"/>
<line x1="142.212" y1="8.01903" x2="156.841" y2="9.51382" stroke="black" stroke-width="0.5"/>
<line x1="142.673" y1="5.97112" x2="142.185" y2="10.748" stroke="black" stroke-width="0.5"/>
<line x1="157.308" y1="7.3995" x2="156.82" y2="12.1764" stroke="black" stroke-width="0.5"/>
<line x1="134.65" y1="9.69334" x2="149.279" y2="11.1881" stroke="black" stroke-width="0.5"/>
<line x1="135.111" y1="7.64544" x2="134.623" y2="12.4224" stroke="black" stroke-width="0.5"/>
<line x1="149.747" y1="9.07381" x2="149.258" y2="13.8507" stroke="black" stroke-width="0.5"/>
<line x1="125.085" y1="10.4255" x2="139.714" y2="11.9203" stroke="black" stroke-width="0.5"/>
<line x1="125.545" y1="8.37759" x2="125.057" y2="13.1545" stroke="black" stroke-width="0.5"/>
<line x1="140.181" y1="9.80593" x2="139.693" y2="14.5829" stroke="black" stroke-width="0.5"/>
<line x1="116.118" y1="11.8891" x2="130.747" y2="13.3839" stroke="black" stroke-width="0.5"/>
<line x1="116.579" y1="9.84124" x2="116.091" y2="14.6182" stroke="black" stroke-width="0.5"/>
<line x1="131.214" y1="11.2696" x2="130.726" y2="16.0465" stroke="black" stroke-width="0.5"/>
<line x1="118.332" y1="29.7154" x2="152.429" y2="24.5742" stroke="black" stroke-width="0.5"/>
<line x1="112.907" y1="29.1532" x2="123.882" y2="30.2746" stroke="black" stroke-width="0.5"/>
<line x1="113.309" y1="27.6851" x2="112.942" y2="31.2689" stroke="black" stroke-width="0.5"/>
<line x1="124.289" y1="28.7568" x2="123.922" y2="32.3406" stroke="black" stroke-width="0.5"/>
<line x1="146.221" y1="23.9068" x2="157.196" y2="25.0282" stroke="black" stroke-width="0.5"/>
<line x1="146.623" y1="22.4388" x2="146.257" y2="26.0226" stroke="black" stroke-width="0.5"/>
<line x1="157.603" y1="23.5104" x2="157.237" y2="27.0942" stroke="black" stroke-width="0.5"/>
<line x1="137.755" y1="25.0029" x2="148.73" y2="26.1244" stroke="black" stroke-width="0.5"/>
<line x1="138.156" y1="23.535" x2="137.79" y2="27.1188" stroke="black" stroke-width="0.5"/>
<line x1="149.137" y1="24.6066" x2="148.77" y2="28.1903" stroke="black" stroke-width="0.5"/>
<line x1="132.082" y1="26.259" x2="143.057" y2="27.3805" stroke="black" stroke-width="0.5"/>
<line x1="132.483" y1="24.7911" x2="132.117" y2="28.3749" stroke="black" stroke-width="0.5"/>
<line x1="143.463" y1="25.8627" x2="143.097" y2="29.4464" stroke="black" stroke-width="0.5"/>
<line x1="124.906" y1="26.8083" x2="135.881" y2="27.9297" stroke="black" stroke-width="0.5"/>
<line x1="125.307" y1="25.3404" x2="124.941" y2="28.9242" stroke="black" stroke-width="0.5"/>
<line x1="136.287" y1="26.4119" x2="135.921" y2="29.9957" stroke="black" stroke-width="0.5"/>
<line x1="118.179" y1="27.9064" x2="129.154" y2="29.0279" stroke="black" stroke-width="0.5"/>
<line x1="118.58" y1="26.4384" x2="118.214" y2="30.0222" stroke="black" stroke-width="0.5"/>
<line x1="129.56" y1="27.51" x2="129.194" y2="31.0938" stroke="black" stroke-width="0.5"/>
<path d="M142.194 83.8892H154.194L210.194 207.889H86.1944L142.194 83.8892Z" fill="url(#paint3_linear_49_150)"/>
<path d="M142.194 83.8892C146.257 77.6392 150.257 77.6392 154.319 83.8892L142.194 83.8892Z" fill="#262626"/>
<path d="M-0.481589 135.185L120.228 90.8893H176.194V207.884L93.7033 266.733C-9.21497 252.054 -22.5141 219.189 -0.481589 135.185Z" fill="url(#paint4_linear_49_150)" fill-opacity="0.32"/>
</g>
<defs>
<radialGradient id="paint0_radial_49_150" cx="0" cy="0" r="1" gradientUnits="userSpaceOnUse" gradientTransform="translate(148.194 198.389) rotate(90) scale(9.5 53)">
<stop stop-color="#AA5423" stop-opacity="0.87"/>
<stop offset="1" stop-color="#5E2B0E" stop-opacity="0"/>
</radialGradient>
<linearGradient id="paint1_linear_49_150" x1="148.194" y1="191.889" x2="148.194" y2="200.889" gradientUnits="userSpaceOnUse">
<stop stop-color="#47230E"/>
<stop offset="1" stop-color="#311506"/>
</linearGradient>
<linearGradient id="paint2_linear_49_150" x1="148.194" y1="90.8893" x2="148.194" y2="188.889" gradientUnits="userSpaceOnUse">
<stop stop-color="#CD962C"/>
<stop offset="1" stop-color="#D8B63E"/>
</linearGradient>
<linearGradient id="paint3_linear_49_150" x1="148.194" y1="83.8892" x2="148.194" y2="207.889" gradientUnits="userSpaceOnUse">
<stop stop-color="#FFFB9D" stop-opacity="0.25"/>
<stop offset="1" stop-color="#FFFB9D" stop-opacity="0"/>
</linearGradient>
<linearGradient id="paint4_linear_49_150" x1="197.333" y1="111.564" x2="-45.3602" y2="251.897" gradientUnits="userSpaceOnUse">
<stop stop-color="#FFFB9D" stop-opacity="0.5"/>
<stop offset="0.625" stop-color="#FFFB9D" stop-opacity="0"/>
</linearGradient>
<clipPath id="clip0_49_150">
<rect width="305" height="265" fill="white"/>
</clipPath>
<clipPath id="clip1_49_150">
<rect width="56" height="117" fill="white" transform="translate(120.194 90.8893)"/>
</clipPath>
</defs>
</svg>
