<svg width="114" height="181" viewBox="0 0 114 181" fill="none" xmlns="http://www.w3.org/2000/svg">
<path d="M4 2L110 31.7916V181H4V2Z" fill="#040404"/>
<line x1="0.264561" y1="1.03563" x2="113.265" y2="32.0356" stroke="black" stroke-width="2"/>
<g clip-path="url(#clip0_7_188)">
<rect width="56" height="117" transform="translate(29 64)" fill="white"/>
<rect x="4" y="162" width="106" height="19" fill="#5E2B0E"/>
<rect x="4" y="162" width="106" height="19" fill="url(#paint0_radial_7_188)" fill-opacity="0.96"/>
<line x1="59.2497" y1="161.987" x2="60.2497" y2="180.987" stroke="#47230E" stroke-width="0.5"/>
<line x1="55.2497" y1="162.013" x2="54.2497" y2="181.013" stroke="#47230E" stroke-width="0.5"/>
<line x1="51.2486" y1="162.026" x2="49.2486" y2="181.026" stroke="#47230E" stroke-width="0.5"/>
<line x1="47.2469" y1="162.039" x2="44.2469" y2="181.039" stroke="#47230E" stroke-width="0.5"/>
<line x1="43.2446" y1="162.052" x2="39.2446" y2="181.051" stroke="#47230E" stroke-width="0.5"/>
<line x1="39.2384" y1="162.075" x2="33.2384" y2="181.075" stroke="#47230E" stroke-width="0.5"/>
<line x1="35.2304" y1="162.097" x2="27.2304" y2="181.097" stroke="#47230E" stroke-width="0.5"/>
<line x1="31.2259" y1="162.107" x2="22.2259" y2="181.107" stroke="#47230E" stroke-width="0.5"/>
<line x1="63.2486" y1="161.974" x2="65.2486" y2="180.974" stroke="#47230E" stroke-width="0.5"/>
<line x1="67.2469" y1="161.961" x2="70.2469" y2="180.961" stroke="#47230E" stroke-width="0.5"/>
<line x1="71.2446" y1="161.948" x2="75.2446" y2="180.949" stroke="#47230E" stroke-width="0.5"/>
<line x1="75.2418" y1="161.936" x2="80.2418" y2="180.936" stroke="#47230E" stroke-width="0.5"/>
<line x1="79.2384" y1="161.925" x2="85.2384" y2="180.925" stroke="#47230E" stroke-width="0.5"/>
<line x1="83.2304" y1="161.903" x2="91.2304" y2="180.903" stroke="#47230E" stroke-width="0.5"/>
<path d="M40.5 164.75H40.2882L40.2534 164.959L38.7534 173.959L38.7049 174.25H39H75H75.2951L75.2466 173.959L73.7466 164.959L73.7118 164.75H73.5H40.5Z" fill="url(#paint1_linear_7_188)" stroke="#311506" stroke-width="0.5"/>
<path d="M73.5 165V174H75L73.5 165Z" fill="#230F04"/>
<path d="M40.5 165V174H39L40.5 165Z" fill="#230F04"/>
<line x1="57.25" y1="165" x2="57.25" y2="174" stroke="#311506" stroke-width="0.5"/>
<line x1="65.25" y1="165" x2="65.25" y2="174" stroke="#311506" stroke-width="0.5"/>
<line x1="49.25" y1="165" x2="49.25" y2="174" stroke="#311506" stroke-width="0.5"/>
<line x1="69.25" y1="165" x2="69.25" y2="174" stroke="#311506" stroke-width="0.5"/>
<line x1="61.25" y1="165" x2="61.25" y2="174" stroke="#311506" stroke-width="0.5"/>
<line x1="53.25" y1="165" x2="53.25" y2="174" stroke="#311506" stroke-width="0.5"/>
<line x1="44.25" y1="165" x2="44.25" y2="174" stroke="#311506" stroke-width="0.5"/>
<rect x="29" y="64" width="56" height="98" fill="url(#paint2_linear_7_188)"/>
<line x1="29" y1="122.75" x2="85" y2="122.75" stroke="#CD962C" stroke-width="0.5"/>
<line x1="29" y1="93.75" x2="85" y2="93.75" stroke="#C68E23" stroke-width="0.5"/>
<line x1="29" y1="79.75" x2="85" y2="79.75" stroke="#C68E23" stroke-width="0.5"/>
<line x1="29" y1="108.75" x2="85" y2="108.75" stroke="#CD962C" stroke-width="0.5"/>
<line x1="29" y1="136.75" x2="85" y2="136.75" stroke="#CD962C" stroke-width="0.5"/>
<line x1="29" y1="156.75" x2="85" y2="156.75" stroke="#CD962C" stroke-width="0.5"/>
<line x1="29" y1="143.75" x2="85" y2="143.75" stroke="#CD962C" stroke-width="0.5"/>
<line x1="29" y1="129.75" x2="85" y2="129.75" stroke="#CD962C" stroke-width="0.5"/>
<line x1="29" y1="115.75" x2="85" y2="115.75" stroke="#CD962C" stroke-width="0.5"/>
<line x1="29" y1="101.75" x2="85" y2="101.75" stroke="#CB9329" stroke-width="0.5"/>
<line x1="29" y1="86.75" x2="85" y2="86.75" stroke="#C68E23" stroke-width="0.5"/>
<line x1="29" y1="72.75" x2="85" y2="72.75" stroke="#C68E23" stroke-width="0.5"/>
<line x1="29" y1="65.75" x2="85" y2="65.75" stroke="#C68E23" stroke-width="0.5"/>
<line x1="29" y1="150.75" x2="85" y2="150.75" stroke="#CD962C" stroke-width="0.5"/>
<path d="M30 179L39.5 171L39 173.191L30 181H29V179H30Z" fill="black" fill-opacity="0.46"/>
<line x1="29.5" y1="180" x2="29.5" y2="64" stroke="#0E0601"/>
<path d="M30 64H47V165.624L30 180V64Z" fill="url(#paint3_linear_7_188)"/>
<path d="M33 69L43 68.5V90L33 94V69Z" fill="#E9BA5A"/>
<path d="M38 68H39V93H38V68Z" fill="#221005"/>
<path d="M32.1619 81.0463L44.5 79L45.5 79.5L32.3324 82.0582L32.1619 81.0463Z" fill="#221005"/>
</g>
<defs>
<radialGradient id="paint0_radial_7_188" cx="0" cy="0" r="1" gradientUnits="userSpaceOnUse" gradientTransform="translate(57 171.5) rotate(90) scale(9.5 53)">
<stop stop-color="#AA5423" stop-opacity="0.87"/>
<stop offset="1" stop-color="#5E2B0E" stop-opacity="0"/>
</radialGradient>
<linearGradient id="paint1_linear_7_188" x1="57" y1="165" x2="57" y2="174" gradientUnits="userSpaceOnUse">
<stop stop-color="#47230E"/>
<stop offset="1" stop-color="#311506"/>
</linearGradient>
<linearGradient id="paint2_linear_7_188" x1="57" y1="64" x2="57" y2="162" gradientUnits="userSpaceOnUse">
<stop stop-color="#CD962C"/>
<stop offset="1" stop-color="#D8B63E"/>
</linearGradient>
<linearGradient id="paint3_linear_7_188" x1="38.5" y1="64" x2="38.5" y2="180" gradientUnits="userSpaceOnUse">
<stop stop-color="#281307"/>
<stop offset="1" stop-color="#140903"/>
</linearGradient>
<clipPath id="clip0_7_188">
<rect width="56" height="117" fill="white" transform="translate(29 64)"/>
</clipPath>
</defs>
</svg>
