<svg width="773" height="422" viewBox="0 0 773 422" fill="none" xmlns="http://www.w3.org/2000/svg">
<rect x="9" y="9" width="755" height="404" fill="black"/>
<rect x="9" y="9" width="755" height="16" fill="#3C3C3C"/>
<rect x="13" y="12" width="10" height="10" rx="5" fill="#007ACC"/>
<rect x="29" y="14" width="16" height="7" rx="3" fill="#7F7F74"/>
<rect x="51" y="14" width="13" height="7" rx="3" fill="#7F7F74"/>
<rect x="107" y="14" width="21" height="7" rx="3" fill="#7F7F74"/>
<rect x="134" y="14" width="12" height="7" rx="3" fill="#7F7F74"/>
<rect x="152" y="14" width="13" height="7" rx="3" fill="#7F7F74"/>
<rect x="171" y="14" width="31" height="7" rx="3" fill="#7F7F74"/>
<rect x="208" y="14" width="23" height="7" rx="3" fill="#7F7F74"/>
<rect x="734" y="14" width="23" height="7" rx="3" fill="#7F7F74"/>
<rect x="70" y="14" width="31" height="7" rx="3" fill="#7F7F74"/>
<rect x="9" y="401" width="755" height="12" fill="#007ACC"/>
<rect x="9" y="25" width="25" height="376" fill="#333333"/>
<path d="M34 25H128V401H34V25Z" fill="#252526"/>
<path d="M55 86C55 83.7909 56.7909 82 59 82H88C90.2091 82 92 83.7909 92 86V88C92 90.2091 90.2091 92 88 92H73.5H59C56.7909 92 55 90.2091 55 88V86Z" fill="#595954"/>
<path d="M55 85.6364C55 83.6281 57.2849 82 60.1034 82H86.8966C89.7151 82 92 83.6281 92 85.6364V88.3636C92 90.3719 89.7151 92 86.8966 92H60.1034C57.2849 92 55 90.3719 55 88.3636V85.6364Z" fill="#595954"/>
<path d="M55 98C55 95.7909 56.7909 94 59 94H79C81.2091 94 83 95.7909 83 98V100C83 102.209 81.2091 104 79 104H69H59C56.7909 104 55 102.209 55 100V98Z" fill="#595954"/>
<path d="M55 97.6364C55 95.6281 56.7291 94 58.8621 94H79.1379C81.2709 94 83 95.6281 83 97.6364V100.364C83 102.372 81.2709 104 79.1379 104H58.8621C56.7291 104 55 102.372 55 100.364V97.6364Z" fill="#595954"/>
<path d="M60 110C60 107.791 61.7909 106 64 106H97C99.2091 106 101 107.791 101 110V112C101 114.209 99.2091 116 97 116H80.5H64C61.7909 116 60 114.209 60 112V110Z" fill="#595954"/>
<path d="M60 109.636C60 107.628 62.5319 106 65.6552 106H95.3448C98.4681 106 101 107.628 101 109.636V112.364C101 114.372 98.4681 116 95.3448 116H65.6552C62.5319 116 60 114.372 60 112.364V109.636Z" fill="#595954"/>
<path d="M64 122C64 119.791 65.7909 118 68 118H100C102.209 118 104 119.791 104 122V124C104 126.209 102.209 128 100 128H84H68C65.7909 128 64 126.209 64 124V122Z" fill="#595954"/>
<path d="M64 121.636C64 119.628 66.4702 118 69.5172 118H98.4828C101.53 118 104 119.628 104 121.636V124.364C104 126.372 101.53 128 98.4828 128H69.5172C66.4702 128 64 126.372 64 124.364V121.636Z" fill="#595954"/>
<path d="M64 134C64 131.791 65.7909 130 68 130H103C105.209 130 107 131.791 107 134V136C107 138.209 105.209 140 103 140H85.5H68C65.7909 140 64 138.209 64 136V134Z" fill="#595954"/>
<path d="M64 133.636C64 131.628 66.6554 130 69.931 130H101.069C104.345 130 107 131.628 107 133.636V136.364C107 138.372 104.345 140 101.069 140H69.931C66.6554 140 64 138.372 64 136.364V133.636Z" fill="#595954"/>
<path d="M64 146C64 143.791 65.7909 142 68 142H93C95.2091 142 97 143.791 97 146V148C97 150.209 95.2091 152 93 152H80.5H68C65.7909 152 64 150.209 64 148V146Z" fill="#595954"/>
<path d="M64 145.636C64 143.628 66.0379 142 68.5517 142H92.4483C94.9621 142 97 143.628 97 145.636V148.364C97 150.372 94.9621 152 92.4483 152H68.5517C66.0379 152 64 150.372 64 148.364V145.636Z" fill="#595954"/>
<path d="M71 158C71 155.791 72.7909 154 75 154H100C102.209 154 104 155.791 104 158V160C104 162.209 102.209 164 100 164H87.5H75C72.7909 164 71 162.209 71 160V158Z" fill="#595954"/>
<path d="M71 157.636C71 155.628 73.0379 154 75.5517 154H99.4483C101.962 154 104 155.628 104 157.636V160.364C104 162.372 101.962 164 99.4483 164H75.5517C73.0379 164 71 162.372 71 160.364V157.636Z" fill="#595954"/>
<path d="M71 170C71 167.791 72.7909 166 75 166H105C107.209 166 109 167.791 109 170V172C109 174.209 107.209 176 105 176H90H75C72.7909 176 71 174.209 71 172V170Z" fill="#595954"/>
<path d="M71 169.636C71 167.628 73.3466 166 76.2414 166H103.759C106.653 166 109 167.628 109 169.636V172.364C109 174.372 106.653 176 103.759 176H76.2414C73.3466 176 71 174.372 71 172.364V169.636Z" fill="#595954"/>
<path d="M45 34C45 31.7909 46.7909 30 49 30H70C72.2091 30 74 31.7909 74 34V37C74 39.2091 72.2091 41 70 41H49C46.7909 41 45 39.2091 45 37V34Z" fill="#595954"/>
<path d="M45 34C45 31.7909 46.7909 30 49 30H70C72.2091 30 74 31.7909 74 34V37C74 39.2091 72.2091 41 70 41H49C46.7909 41 45 39.2091 45 37V34Z" fill="#595954"/>
<path d="M45 50C45 47.7909 46.7909 46 49 46H93C95.2091 46 97 47.7909 97 50V52C97 54.2091 95.2091 56 93 56H71H49C46.7909 56 45 54.2091 45 52V50Z" fill="#595954"/>
<path d="M45 49.6364C45 47.6281 48.2112 46 52.1724 46H89.8276C93.7888 46 97 47.6281 97 49.6364V52.3636C97 54.3719 93.7888 56 89.8276 56H52.1724C48.2112 56 45 54.3719 45 52.3636V49.6364Z" fill="#595954"/>
<path d="M51 62C51 59.7909 52.7909 58 55 58H99C101.209 58 103 59.7909 103 62V64C103 66.2091 101.209 68 99 68H77H55C52.7909 68 51 66.2091 51 64V62Z" fill="#595954"/>
<path d="M51 61.6364C51 59.6281 54.2112 58 58.1724 58H95.8276C99.7888 58 103 59.6281 103 61.6364V64.3636C103 66.3719 99.7888 68 95.8276 68H58.1724C54.2112 68 51 66.3719 51 64.3636V61.6364Z" fill="#595954"/>
<path d="M55 74C55 71.7909 56.7909 70 59 70H113C115.209 70 117 71.7909 117 74V76C117 78.2091 115.209 80 113 80H86H59C56.7909 80 55 78.2091 55 76V74Z" fill="#595954"/>
<path d="M55 73.6364C55 71.6281 58.8287 70 63.5517 70H108.448C113.171 70 117 71.6281 117 73.6364V76.3636C117 78.3719 113.171 80 108.448 80H63.5517C58.8287 80 55 78.3719 55 76.3636V73.6364Z" fill="#595954"/>
<rect x="13" y="31" width="16" height="16" rx="4" fill="#7F7F74"/>
<rect x="13" y="58" width="16" height="16" rx="4" fill="#7F7F74"/>
<rect x="13" y="85" width="16" height="16" rx="4" fill="#7F7F74"/>
<rect x="13" y="112" width="16" height="16" rx="4" fill="#7F7F74"/>
<rect x="13" y="139" width="16" height="16" rx="4" fill="#7F7F74"/>
<rect x="13" y="166" width="16" height="16" rx="4" fill="#7F7F74"/>
<path d="M128 25H194V45H764V57H128V25Z" fill="#1E1E1E"/>
<path d="M146 34C146 31.7909 147.791 30 150 30H164C166.209 30 168 31.7909 168 34V37C168 39.2091 166.209 41 164 41H157H150C147.791 41 146 39.2091 146 37V34Z" fill="#595954"/>
<path d="M146 34C146 31.7909 147.359 30 149.034 30H164.966C166.641 30 168 31.7909 168 34V37C168 39.2091 166.641 41 164.966 41H149.034C147.359 41 146 39.2091 146 37V34Z" fill="#595954"/>
<path d="M135 52C135 49.7909 136.791 48 139 48H164C166.209 48 168 49.7909 168 52V52C168 54.2091 166.209 56 164 56H151.5H139C136.791 56 135 54.2091 135 52V52Z" fill="#595954"/>
<path d="M135 50.9091C135 49.3024 137.038 48 139.552 48H163.448C165.962 48 168 49.3024 168 50.9091V53.0909C168 54.6976 165.962 56 163.448 56H139.552C137.038 56 135 54.6976 135 53.0909V50.9091Z" fill="#595954"/>
<path d="M173 52C173 49.7909 174.791 48 177 48H180C182.209 48 184 49.7909 184 52V52C184 54.2091 182.209 56 180 56H178.5H177C174.791 56 173 54.2091 173 52V52Z" fill="#595954"/>
<path d="M173 50.9091C173 49.3024 173.679 48 174.517 48H182.483C183.321 48 184 49.3024 184 50.9091V53.0909C184 54.6976 183.321 56 182.483 56H174.517C173.679 56 173 54.6976 173 53.0909V50.9091Z" fill="#595954"/>
<path d="M189 52C189 49.7909 190.791 48 193 48H218C220.209 48 222 49.7909 222 52V52C222 54.2091 220.209 56 218 56H205.5H193C190.791 56 189 54.2091 189 52V52Z" fill="#595954"/>
<path d="M189 50.9091C189 49.3024 191.038 48 193.552 48H217.448C219.962 48 222 49.3024 222 50.9091V53.0909C222 54.6976 219.962 56 217.448 56H193.552C191.038 56 189 54.6976 189 53.0909V50.9091Z" fill="#595954"/>
<path d="M194 25H764V45H194V25Z" fill="#252526"/>
<mask id="path-40-inside-1_28_120" fill="white">
<path d="M155 57H764V285H155V57Z"/>
</mask>
<path d="M155 57H764V285H155V57Z" fill="#1E1E1E"/>
<path d="M155 58H764V56H155V58Z" fill="black" fill-opacity="0.3" mask="url(#path-40-inside-1_28_120)"/>
<path d="M175 67C175 64.7909 176.791 63 179 63H227C229.209 63 231 64.7909 231 67V67C231 69.2091 229.209 71 227 71H203H179C176.791 71 175 69.2091 175 67V67Z" fill="#595954"/>
<path d="M175 65.9091C175 64.3024 178.458 63 182.724 63H223.276C227.542 63 231 64.3024 231 65.9091V68.0909C231 69.6976 227.542 71 223.276 71H182.724C178.458 71 175 69.6976 175 68.0909V65.9091Z" fill="#595954"/>
<mask id="path-43-inside-2_28_120" fill="white">
<path d="M128 57H155V285H128V57Z"/>
</mask>
<path d="M128 57H155V285H128V57Z" fill="#1E1E1E"/>
<path d="M155 57H156V56H155V57ZM128 58H155V56H128V58ZM154 57V285H156V57H154Z" fill="black" fill-opacity="0.3" mask="url(#path-43-inside-2_28_120)"/>
<path d="M201 100C201 97.7909 202.791 96 205 96H333C335.209 96 337 97.7909 337 100V100C337 102.209 335.209 104 333 104H269H205C202.791 104 201 102.209 201 100V100Z" fill="#595954"/>
<path d="M201 98.9091C201 97.3024 209.399 96 219.759 96H318.241C328.601 96 337 97.3024 337 98.9091V101.091C337 102.698 328.601 104 318.241 104H219.759C209.399 104 201 102.698 201 101.091V98.9091Z" fill="#595954"/>
<path d="M192 111C192 108.791 193.791 107 196 107H242C244.209 107 246 108.791 246 111V111C246 113.209 244.209 115 242 115H219H196C193.791 115 192 113.209 192 111V111Z" fill="#595954"/>
<path d="M192 109.909C192 108.302 195.335 107 199.448 107H238.552C242.665 107 246 108.302 246 109.909V112.091C246 113.698 242.665 115 238.552 115H199.448C195.335 115 192 113.698 192 112.091V109.909Z" fill="#595954"/>
<path d="M192 122C192 119.791 193.791 118 196 118H211C213.209 118 215 119.791 215 122V122C215 124.209 213.209 126 211 126H203.5H196C193.791 126 192 124.209 192 122V122Z" fill="#595954"/>
<path d="M192 120.909C192 119.302 193.42 118 195.172 118H211.828C213.58 118 215 119.302 215 120.909V123.091C215 124.698 213.58 126 211.828 126H195.172C193.42 126 192 124.698 192 123.091V120.909Z" fill="#595954"/>
<path d="M192 133C192 130.791 193.791 129 196 129H253C255.209 129 257 130.791 257 133V133C257 135.209 255.209 137 253 137H224.5H196C193.791 137 192 135.209 192 133V133Z" fill="#595954"/>
<path d="M192 131.909C192 130.302 196.014 129 200.966 129H248.034C252.986 129 257 130.302 257 131.909V134.091C257 135.698 252.986 137 248.034 137H200.966C196.014 137 192 135.698 192 134.091V131.909Z" fill="#595954"/>
<path d="M184 144C184 141.791 185.791 140 188 140H227C229.209 140 231 141.791 231 144V144C231 146.209 229.209 148 227 148H207.5H188C185.791 148 184 146.209 184 144V144Z" fill="#595954"/>
<path d="M184 142.909C184 141.302 186.902 140 190.483 140H224.517C228.098 140 231 141.302 231 142.909V145.091C231 146.698 228.098 148 224.517 148H190.483C186.902 148 184 146.698 184 145.091V142.909Z" fill="#595954"/>
<path d="M184 155C184 152.791 185.791 151 188 151H214C216.209 151 218 152.791 218 155V155C218 157.209 216.209 159 214 159H201H188C185.791 159 184 157.209 184 155V155Z" fill="#595954"/>
<path d="M184 153.909C184 152.302 186.1 151 188.69 151H213.31C215.9 151 218 152.302 218 153.909V156.091C218 157.698 215.9 159 213.31 159H188.69C186.1 159 184 157.698 184 156.091V153.909Z" fill="#595954"/>
<path d="M192 166C192 163.791 193.791 162 196 162H235C237.209 162 239 163.791 239 166V166C239 168.209 237.209 170 235 170H215.5H196C193.791 170 192 168.209 192 166V166Z" fill="#595954"/>
<path d="M192 164.909C192 163.302 194.902 162 198.483 162H232.517C236.098 162 239 163.302 239 164.909V167.091C239 168.698 236.098 170 232.517 170H198.483C194.902 170 192 168.698 192 167.091V164.909Z" fill="#595954"/>
<path d="M201 177C201 174.791 202.791 173 205 173H259C261.209 173 263 174.791 263 177V177C263 179.209 261.209 181 259 181H232H205C202.791 181 201 179.209 201 177V177Z" fill="#595954"/>
<path d="M201 175.909C201 174.302 204.829 173 209.552 173H254.448C259.171 173 263 174.302 263 175.909V178.091C263 179.698 259.171 181 254.448 181H209.552C204.829 181 201 179.698 201 178.091V175.909Z" fill="#595954"/>
<path d="M182 188C182 185.791 183.791 184 186 184H221C223.209 184 225 185.791 225 188V188C225 190.209 223.209 192 221 192H203.5H186C183.791 192 182 190.209 182 188V188Z" fill="#595954"/>
<path d="M182 186.909C182 185.302 184.655 184 187.931 184H219.069C222.345 184 225 185.302 225 186.909V189.091C225 190.698 222.345 192 219.069 192H187.931C184.655 192 182 190.698 182 189.091V186.909Z" fill="#595954"/>
<path d="M184 78C184 75.7909 185.791 74 188 74H221C223.209 74 225 75.7909 225 78V78C225 80.2091 223.209 82 221 82H204.5H188C185.791 82 184 80.2091 184 78V78Z" fill="#595954"/>
<path d="M184 76.9091C184 75.3024 186.532 74 189.655 74H219.345C222.468 74 225 75.3024 225 76.9091V79.0909C225 80.6976 222.468 82 219.345 82H189.655C186.532 82 184 80.6976 184 79.0909V76.9091Z" fill="#595954"/>
<path d="M192 89C192 86.7909 193.791 85 196 85H245C247.209 85 249 86.7909 249 89V89C249 91.2091 247.209 93 245 93H220.5H196C193.791 93 192 91.2091 192 89V89Z" fill="#595954"/>
<path d="M192 87.9091C192 86.3024 195.52 85 199.862 85H241.138C245.48 85 249 86.3024 249 87.9091V90.0909C249 91.6976 245.48 93 241.138 93H199.862C195.52 93 192 91.6976 192 90.0909V87.9091Z" fill="#595954"/>
<mask id="path-56-inside-3_28_120" fill="white">
<path d="M128 285H764V401H128V285Z"/>
</mask>
<path d="M128 285H764V401H128V285Z" fill="#1E1E1E"/>
<path d="M128 286H764V284H128V286Z" fill="#3F3F3D" mask="url(#path-56-inside-3_28_120)"/>
<path d="M138 294C138 291.791 139.791 290 142 290H167C169.209 290 171 291.791 171 294V295C171 297.209 169.209 299 167 299H154.5H142C139.791 299 138 297.209 138 295V294Z" fill="#595954"/>
<path d="M138 293.273C138 291.465 140.038 290 142.552 290H166.448C168.962 290 171 291.465 171 293.273V295.727C171 297.535 168.962 299 166.448 299H142.552C140.038 299 138 297.535 138 295.727V293.273Z" fill="#595954"/>
<path d="M178 294C178 291.791 179.791 290 182 290H207C209.209 290 211 291.791 211 294V295C211 297.209 209.209 299 207 299H194.5H182C179.791 299 178 297.209 178 295V294Z" fill="#595954"/>
<path d="M178 293.273C178 291.465 180.038 290 182.552 290H206.448C208.962 290 211 291.465 211 293.273V295.727C211 297.535 208.962 299 206.448 299H182.552C180.038 299 178 297.535 178 295.727V293.273Z" fill="#595954"/>
<path d="M218 294C218 291.791 219.791 290 222 290H265C267.209 290 269 291.791 269 294V295C269 297.209 267.209 299 265 299H243.5H222C219.791 299 218 297.209 218 295V294Z" fill="#595954"/>
<path d="M218 293.273C218 291.465 221.149 290 225.034 290H261.966C265.851 290 269 291.465 269 293.273V295.727C269 297.535 265.851 299 261.966 299H225.034C221.149 299 218 297.535 218 295.727V293.273Z" fill="#595954"/>
<path d="M276 294C276 291.791 277.791 290 280 290H305C307.209 290 309 291.791 309 294V295C309 297.209 307.209 299 305 299H292.5H280C277.791 299 276 297.209 276 295V294Z" fill="#595954"/>
<path d="M276 293.273C276 291.465 278.038 290 280.552 290H304.448C306.962 290 309 291.465 309 293.273V295.727C309 297.535 306.962 299 304.448 299H280.552C278.038 299 276 297.535 276 295.727V293.273Z" fill="#595954"/>
<path d="M745 294C745 291.791 746.791 290 749 290H753C755.209 290 757 291.791 757 294V295C757 297.209 755.209 299 753 299H751H749C746.791 299 745 297.209 745 295V294Z" fill="#595954"/>
<path d="M745 293.273C745 291.465 745.741 290 746.655 290H755.345C756.259 290 757 291.465 757 293.273V295.727C757 297.535 756.259 299 755.345 299H746.655C745.741 299 745 297.535 745 295.727V293.273Z" fill="#595954"/>
<path d="M138 309C138 306.791 139.791 305 142 305H301C303.209 305 305 306.791 305 309V310C305 312.209 303.209 314 301 314H221.5H142C139.791 314 138 312.209 138 310V309Z" fill="#817B78"/>
<path d="M138 308.273C138 306.465 148.313 305 161.034 305H281.966C294.687 305 305 306.465 305 308.273V310.727C305 312.535 294.687 314 281.966 314H161.034C148.313 314 138 312.535 138 310.727V308.273Z" fill="#817B78"/>
<path d="M146 328C146 325.791 147.791 324 150 324H169C171.209 324 173 325.791 173 328V329C173 331.209 171.209 333 169 333H159.5H150C147.791 333 146 331.209 146 329V328Z" fill="#817B78"/>
<path d="M146 327.273C146 325.465 147.667 324 149.724 324H169.276C171.333 324 173 325.465 173 327.273V329.727C173 331.535 171.333 333 169.276 333H149.724C147.667 333 146 331.535 146 329.727V327.273Z" fill="#817B78"/>
<path d="M146 338C146 335.791 147.791 334 150 334H207C209.209 334 211 335.791 211 338V339C211 341.209 209.209 343 207 343H178.5H150C147.791 343 146 341.209 146 339V338Z" fill="#817B78"/>
<path d="M146 337.273C146 335.465 150.014 334 154.966 334H202.034C206.986 334 211 335.465 211 337.273V339.727C211 341.535 206.986 343 202.034 343H154.966C150.014 343 146 341.535 146 339.727V337.273Z" fill="#817B78"/>
<path d="M138 357C138 354.791 139.791 353 142 353H327C329.209 353 331 354.791 331 357V358C331 360.209 329.209 362 327 362H234.5H142C139.791 362 138 360.209 138 358V357Z" fill="#817B78"/>
<path d="M138 356.273C138 354.465 149.918 353 164.621 353H304.379C319.082 353 331 354.465 331 356.273V358.727C331 360.535 319.082 362 304.379 362H164.621C149.918 362 138 360.535 138 358.727V356.273Z" fill="#817B78"/>
<path d="M138 367C138 364.791 139.791 363 142 363H216C218.209 363 220 364.791 220 367V368C220 370.209 218.209 372 216 372H179H142C139.791 372 138 370.209 138 368V367Z" fill="#817B78"/>
<path d="M138 366.273C138 364.465 143.064 363 149.31 363H208.69C214.936 363 220 364.465 220 366.273V368.727C220 370.535 214.936 372 208.69 372H149.31C143.064 372 138 370.535 138 368.727V366.273Z" fill="#817B78"/>
<path d="M215 328C215 325.791 216.791 324 219 324H296C298.209 324 300 325.791 300 328V329C300 331.209 298.209 333 296 333H257.5H219C216.791 333 215 331.209 215 329V328Z" fill="#817B78"/>
<path d="M215 327.273C215 325.465 220.249 324 226.724 324H288.276C294.751 324 300 325.465 300 327.273V329.727C300 331.535 294.751 333 288.276 333H226.724C220.249 333 215 331.535 215 329.727V327.273Z" fill="#817B78"/>
<path d="M215 338C215 335.791 216.791 334 219 334H305C307.209 334 309 335.791 309 338V339C309 341.209 307.209 343 305 343H262H219C216.791 343 215 341.209 215 339V338Z" fill="#817B78"/>
<path d="M215 337.273C215 335.465 220.805 334 227.966 334H296.034C303.195 334 309 335.465 309 337.273V339.727C309 341.535 303.195 343 296.034 343H227.966C220.805 343 215 341.535 215 339.727V337.273Z" fill="#817B78"/>
<rect x="4.5" y="4.5" width="764" height="413" rx="9.5" stroke="black" stroke-width="9"/>
</svg>
