<svg width="802" height="390" viewBox="0 0 802 390" fill="none" xmlns="http://www.w3.org/2000/svg">
<path d="M158.035 345.048C215.451 363.935 275.718 374.943 335.337 384.903C336.563 384.275 337.802 383.606 338.995 383.317C350.832 380.447 362.572 378.536 374.68 377.519C425.385 373.258 475.197 362.26 525.858 357.594C565.176 353.972 604.707 354.958 644.143 354.958C669.98 354.958 696.268 356.355 722.051 354.536C738.912 353.347 758.819 350.455 773.656 341.727C779.937 338.033 781.33 333.512 783.829 327.126C787.315 318.218 787.223 308.158 791.631 299.505C795.415 292.076 799.959 287.368 799.959 278.842C799.959 254.59 800.652 230.234 799.959 205.995C799.639 194.806 791.726 183.415 786.886 173.735C782.231 164.423 778.137 154.127 772.443 145.587C767.331 137.919 762.366 130.015 759.16 121.339C757.567 117.029 758.211 111.86 758.211 107.318C758.211 98.7511 762.723 87.7362 750.621 86.3915C747.079 85.998 743.462 85.1111 739.973 84.3358C737.767 83.8455 732.156 82.5959 730.327 81.1731C727.168 78.7162 723.758 75.8847 720.259 73.6353C709.556 66.7549 696.014 75.4299 685.68 66.5719C682.176 63.5689 675.853 57.9831 674.821 53.3413C673.808 48.7807 674.716 43.1141 674.716 38.4238C674.716 31.6669 674.092 27.8376 669.55 23.2956C666.471 20.2169 660.938 13.3857 656.214 13.3857C652.912 13.3857 645.047 14.7889 642.931 12.4369C640.018 9.20031 634.351 2 629.7 2C622.934 2 620.388 2.44636 614.993 7.21846C613.106 8.88853 609.895 11.74 609.037 14.1237C608.632 15.2497 606.563 19.6337 605.874 20.0274C601.719 22.4021 600.276 20.9762 595.49 20.9762C590.405 20.9762 589.288 22.3857 585.475 25.2459C580.164 29.2292 572.055 32.541 567.974 37.5277C562.19 44.597 552.776 45.6453 544.307 45.6453C538.664 45.6453 534.63 48.747 529.969 52.0762C525.17 55.5043 523.213 56.0823 517.213 56.0823C510.618 56.0823 496.869 53.4975 491.595 57.9799C489.159 60.0505 486.749 60.8234 484.426 63.1456C481.842 65.7299 480.299 67.9617 478.312 71.0524C474.585 76.849 473.843 83.3221 468.824 88.3419C459.419 97.7461 448.775 103.523 435.615 103.523C428.416 103.523 422.862 105.594 415.901 107.107C407.142 109.011 398.277 109.508 389.651 111.324C385.296 112.241 381.115 111.677 376.736 112.115C372.073 112.581 368.146 113.96 363.295 113.96H332.406C322.157 113.96 314.039 109.558 303.73 110.165C293.642 110.758 285.238 124.861 278.587 131.513C273.404 136.695 267.818 140.979 261.456 144.796C252.424 150.215 243.934 153.533 233.94 157.131C223.69 160.821 214.823 165.994 205.001 170.414C196.467 174.255 187.185 176.813 179.383 182.274C164.347 192.8 145.328 202.67 126.777 204.044C121.961 204.401 116.746 204.553 112.07 205.784C109.663 206.417 107.534 207.799 105.007 207.892C102.625 207.98 100.364 207.565 98.26 208.894C94.8281 211.061 90.6615 211.387 87.6122 214.323C84.4998 217.32 81.4957 220.44 78.4404 223.495C67.028 234.907 54.2272 241.07 39.9596 247.938L39.3809 248.217C29.142 253.147 16.2198 258.224 9.17711 267.615C6.4491 271.252 2.10743 273.049 2.00831 278.104C1.91849 282.685 2.56785 287.793 3.43152 292.284C4.75853 299.184 8.96084 303.895 15.0808 307.834C25.4273 314.492 39.0638 319.829 50.8194 323.542C69.4058 329.411 87.4878 333.053 106.799 335.086C123.568 336.851 142.09 339.803 158.035 345.048Z" fill="#1A1A1A"/>
<path d="M349.273 387.218C285.137 376.612 219.929 365.408 158.035 345.048C142.09 339.803 123.568 336.851 106.799 335.086C87.4878 333.053 69.4058 329.411 50.8194 323.542C39.0638 319.829 25.4273 314.492 15.0808 307.834C8.96084 303.895 4.75853 299.184 3.43152 292.284C2.56785 287.793 1.91849 282.685 2.00831 278.104C2.10743 273.049 6.4491 271.252 9.17711 267.615C16.2198 258.224 29.142 253.147 39.3809 248.217C53.8813 241.235 66.874 235.061 78.4404 223.495C81.4957 220.44 84.4999 217.32 87.6122 214.323C90.6615 211.387 94.8281 211.061 98.26 208.894C100.364 207.565 102.625 207.98 105.007 207.892C107.534 207.799 109.663 206.417 112.07 205.784C116.746 204.553 121.961 204.401 126.777 204.044C145.328 202.67 164.347 192.8 179.383 182.274C187.185 176.813 196.467 174.255 205.001 170.414C214.823 165.994 223.69 160.821 233.94 157.131C243.934 153.533 252.424 150.215 261.456 144.796C267.818 140.979 273.404 136.695 278.587 131.513C285.238 124.861 293.642 110.758 303.73 110.165C314.039 109.558 322.157 113.96 332.406 113.96C342.702 113.96 352.998 113.96 363.295 113.96C368.146 113.96 372.073 112.581 376.736 112.115C381.115 111.677 385.296 112.241 389.651 111.324C398.277 109.508 407.142 109.011 415.901 107.107C422.862 105.594 428.416 103.523 435.615 103.523C448.775 103.523 459.419 97.7461 468.824 88.3419C473.843 83.3221 474.585 76.849 478.312 71.0524C480.299 67.9617 481.842 65.7299 484.426 63.1456C486.749 60.8234 489.159 60.0505 491.595 57.9799C496.869 53.4975 510.618 56.0823 517.213 56.0823C523.213 56.0823 525.17 55.5043 529.969 52.0762C534.63 48.747 538.664 45.6453 544.307 45.6453C552.776 45.6453 562.191 44.597 567.974 37.5277C572.055 32.541 580.164 29.2292 585.475 25.2459C589.288 22.3857 590.405 20.9762 595.49 20.9762C600.276 20.9762 601.719 22.4021 605.874 20.0274C606.563 19.6337 608.632 15.2497 609.037 14.1237C609.895 11.74 613.106 8.88853 614.993 7.21846C620.388 2.44636 622.934 2 629.7 2C634.351 2 640.018 9.20031 642.931 12.4369C645.047 14.7889 652.912 13.3857 656.214 13.3857C660.938 13.3857 666.471 20.2169 669.55 23.2956C674.092 27.8376 674.716 31.6669 674.716 38.4238C674.716 43.1141 673.808 48.7807 674.821 53.3413C675.853 57.9831 682.176 63.5689 685.68 66.5719C696.014 75.4299 709.556 66.7549 720.259 73.6353C723.758 75.8847 727.168 78.7162 730.327 81.1731C732.156 82.5959 737.767 83.8455 739.973 84.3358C743.462 85.1111 747.079 85.998 750.621 86.3915C762.723 87.7362 758.211 98.7511 758.211 107.318C758.211 111.86 757.567 117.029 759.16 121.339C762.366 130.015 767.331 137.919 772.443 145.587C778.137 154.127 782.231 164.423 786.886 173.735C791.726 183.415 799.639 194.806 799.959 205.995C800.652 230.234 799.959 254.59 799.959 278.842C799.959 287.368 795.415 292.076 791.631 299.505C787.223 308.158 787.315 318.218 783.829 327.126C781.33 333.512 779.937 338.033 773.656 341.727C758.819 350.455 738.912 353.347 722.051 354.536C696.268 356.355 669.98 354.958 644.143 354.958C604.707 354.958 565.176 353.972 525.858 357.594C475.197 362.26 425.385 373.258 374.68 377.519C362.572 378.536 350.832 380.447 338.995 383.317C336.507 383.92 333.819 386.174 331.457 386.269C315.031 386.926 295.7 390.55 280.01 385.32" stroke="#1A1A1A" stroke-width="3" stroke-linecap="round"/>
</svg>
