<svg width="1202" height="680" viewBox="0 0 1202 680" fill="none" xmlns="http://www.w3.org/2000/svg">
<g clip-path="url(#clip0_115_16)">
<path d="M31.5067 528.195C32.8008 537.254 33.4855 546.577 33.9779 555.927C39.4046 560.386 44.1581 565.414 44.1581 571.919C44.1581 592.887 42.3363 613.564 42.3363 634.67C42.3363 688.161 125.605 679.405 159.944 679.405C294.675 679.405 429.364 679.318 564.083 677.685C619.606 677.012 677.623 678.051 732.398 668.07C788.12 657.916 844.169 655.522 900.409 650.054C935.001 646.691 969.063 641.985 1003.85 640.743C1034.9 639.633 1065.98 638.083 1096.96 635.682C1125.26 633.489 1152.01 626.541 1179.37 619.435L1179.55 619.387C1193.53 615.756 1207.88 612.665 1220.95 606.331C1234.57 599.727 1257.17 583.753 1257.48 566.453C1257.92 542.753 1256.58 520.069 1254.04 496.617C1252.15 479.126 1247.35 462.818 1244.73 445.201C1239.43 409.584 1231.92 374.777 1228.34 338.929C1227.18 327.371 1225.14 315.677 1224.69 304.112C1224.41 296.694 1223 283.465 1220.04 276.684C1216.26 268.05 1214.82 258.443 1211.94 249.458C1208.47 238.652 1202.83 230.293 1202.83 218.588C1202.83 173.665 1204.65 129.289 1204.65 84.4828C1204.65 75.0147 1204.5 66.9414 1208.3 58.1677C1209.83 54.6188 1213.58 37.5513 1207.28 36.4072C1200.04 35.0897 1195.49 31.1735 1190.48 25.78C1184.29 19.1136 1180.11 5.06784 1172.77 0.173391C1166.39 -4.07796 1144.9 17.7726 1138.26 20.6182C1128.18 24.9378 1120.08 18.508 1111.74 26.3872C1098.67 38.7323 1076.39 29.0187 1060.73 29.0187C1056.87 29.0187 1053.93 27.1969 1050.71 27.1969C1045.11 27.1969 1045.99 34.3158 1042.51 36.7108C1038.44 39.5066 1035.68 45.5931 1031.48 48.0465C1027.93 50.1138 1022.76 48.8517 1018.83 49.0587C1007.59 49.6501 1002.2 59.9895 991.5 59.9895C988.179 59.9895 984.145 57.1072 981.48 59.1798C977.141 62.5544 973.649 67.8375 969.638 71.7301C961.064 80.0525 944.542 74.564 932.797 74.564H919.437C912.714 74.564 914.004 70.399 908.608 69.1998C903.561 68.0783 901.047 74.923 898.588 78.6125C893.82 85.764 894.681 87.3594 886.746 85.5961C883.441 84.8616 880.916 89.1385 876.726 89.1385C871.661 89.1385 871.2 91.8848 866.706 92.8833C862.148 93.8963 856.16 105.662 853.447 109.178C848.992 114.954 845.635 121.383 841.201 127.295C836.807 133.154 830.424 140.149 822.983 140.149C810.328 140.149 811.667 121.931 799.299 121.931C789.658 121.931 784.27 132.566 772.883 130.939C764.47 129.737 752.281 134.146 744.645 128.206C740.05 124.633 739.569 119.214 734.625 125.98L734.314 126.404C728.088 134.924 722.459 142.625 718.228 152.497C716.265 157.079 708.079 165.655 702.743 165.655C694.555 165.655 693.006 169.317 687.258 174.764C684.31 177.556 680.415 178.165 677.339 181.241C672.415 186.165 670.643 193.491 665.396 198.447C662.518 201.165 659.164 199.819 655.578 200.37C652.574 200.832 651.804 204.549 649.91 206.443C645.86 210.493 640.585 205.225 636.652 204.317C632.998 203.474 628.034 208.983 622.684 207.455C618.658 206.305 615.871 205.257 612.563 209.783C609.865 213.476 605.98 222.508 600.721 216.665C595.169 210.495 590.742 216.427 583.819 216.665C577.37 216.888 574.524 222.131 567.929 222.131C563.617 222.131 560.202 223.953 556.087 223.953C549.478 223.953 545.823 226.013 540.602 230.43C537.416 233.126 531.627 244.16 528.76 239.944C523.382 232.035 529.049 236.705 520.562 236.705C515.341 236.705 512.743 234.31 510.441 240.45C507.963 247.056 502.655 245.179 497.789 248.041C495.463 249.409 496.368 254.761 493.235 251.28C491.547 249.405 489.834 249.694 487.769 248.547C478.005 243.123 475.622 243.995 467.831 254.012C456.931 268.026 446.477 250.875 435.949 249.559C424.189 248.089 425.291 267.676 411.253 267.676C406.215 267.676 405.057 275.559 399.411 272.737C391.852 268.957 393.126 273.345 385.95 279.417C378.717 285.537 366.101 295.192 356.599 293.08C350.983 291.832 351.642 285.894 344.352 285.894C341.471 285.894 333.204 285.07 331.093 282.959C325.254 277.12 329.423 274.247 321.073 278.202C317.831 279.738 311.94 278.607 308.321 278.607C302.744 278.607 283.962 281.71 279.577 278.202C273.483 273.327 270.492 269.206 264.597 276.785C260.463 282.1 258.27 292.461 249.618 289.133C245.773 287.654 244.644 284.072 240.104 284.072C237.759 284.072 235.868 283.962 233.627 283.161C227.097 280.83 225.095 283.914 219.457 286.299C216.068 287.733 214.455 291.706 210.955 292.979C208.46 293.886 205.409 293.264 202.757 294.092C196.878 295.93 192.88 294.115 188.081 298.647C180.968 305.365 169.366 288.141 168.041 300.064C166.032 318.146 155.534 307.756 144.358 307.756C132.512 307.756 122.993 308.713 115.209 319.092C105.521 332.009 91.9262 324.106 80.5944 319.699C72.302 316.474 70.6097 323.059 64.6029 326.986C59.4969 330.325 56.9074 327.512 52.1539 333.362C49.4596 336.678 44.6734 341.427 39.9072 340.144C37.904 339.604 37.4043 338.085 35.0491 339.132C29.4179 341.634 31.7017 346.544 28.5715 350.568C21.123 360.145 18.6296 371.419 8.73403 379.515C5.32171 382.307 0.798471 379.545 0.434662 386.094C0.116402 391.822 0.434662 397.666 0.434662 403.401V444.392C0.434662 458.881 15.0103 471.821 24.1182 481.84C27.1856 485.214 29.4566 499.128 29.5836 503.702C29.8191 512.179 30.3208 519.894 31.5067 528.195Z" fill="#0C0C0C"/>
</g>
<defs>
<clipPath id="clip0_115_16">
<rect width="1202" height="680" fill="white"/>
</clipPath>
</defs>
</svg>
