<svg width="705" height="314" viewBox="0 0 705 314" fill="none" xmlns="http://www.w3.org/2000/svg">
<path d="M111.328 279.112C118.192 279.323 126.015 282.741 132.98 285.736C134.989 289.066 136.018 292.668 138.189 295.924C141.004 300.146 143.555 303.518 147.464 306.939C152.381 311.241 154.959 311.694 161.442 311.577C187.747 311.098 213.969 310.417 240.286 310.417C265.028 310.417 289.874 309.812 314.62 309.193C352.455 308.247 390.269 308.55 428.119 307.905C485.897 306.92 544.033 306.223 601.523 299.724C617.913 297.871 634.195 295.582 649.319 288.645C667.289 280.402 683.263 265.036 690.415 246.647C696.451 231.124 698.157 215.633 699.433 199.044C700.691 182.687 702.911 166.372 702.911 149.96V94.2417C702.911 86.1877 703.647 77.7868 701.752 69.893C699.579 60.8375 695.616 52.3364 693.636 43.2253C691.057 31.364 686.735 20.8681 683.136 9.47209C681.034 2.81464 679.072 2 672.765 2C662.067 2 651.53 8.79017 643.199 15.2694C636.492 20.4858 625.206 19.2946 618.271 25.1893C609.757 32.4262 603.573 36.7839 592.183 36.7839C582.446 36.7839 571.819 37.5009 564.678 44.6425C554.264 55.0565 541.117 62.9215 530.667 73.3714C526.314 77.724 522.791 83.1624 516.238 83.1624C511.145 83.1624 510.005 78.5983 507.606 74.7885C498.684 60.6182 490.371 78.4895 484.932 85.4813C480.025 91.7911 475.288 98.2354 466.639 98.2354C462.703 98.2354 460.091 97.7255 457.105 100.554C453.905 103.586 450.162 107.093 446.413 109.315C445.046 110.124 435.804 110.907 434.174 109.572C426.804 103.542 423.856 100.554 413.626 100.554C407.473 100.554 404.372 107.927 400.549 111.891C395.244 117.393 388.96 122.845 382.9 127.48C379.575 130.022 378.054 133.87 374.268 135.854C371.026 137.552 367.631 138.367 364.413 139.976C359.129 142.618 349.453 142.295 343.542 142.295C337.312 142.295 332.039 145.537 326.086 147.191C321.825 148.374 316.573 149.669 313.332 152.73C309.39 156.453 294.72 153.89 289.563 153.89C277.76 153.89 267.899 150.888 257.935 144.614C250.608 140 237.799 145.864 230.43 146.997C224.878 147.852 215.937 161.061 215.937 166.064C215.937 170.891 208.103 177.962 204.6 180.557C199.553 184.296 196.164 189.793 190.687 193.054C180.23 199.278 167.59 203.078 155.709 204.906C142.745 206.9 132.024 218.126 119.959 223.457C116.38 225.039 114.296 227.486 110.49 228.675C107.764 229.527 104.972 230.142 102.245 230.994C97.1136 232.598 91.2735 234.33 86.0129 234.988C74.546 236.421 64.4986 240.585 56.1889 248.064C50.6276 253.069 39.1937 252.825 32.1622 253.732C23.7256 254.821 10.6243 258.458 4.39955 264.683C-10.3794 279.462 47.8587 279.112 49.8763 279.112H85.4331C94.0513 279.112 102.714 278.847 111.328 279.112Z" fill="#0C0C0C"/>
<path d="M139.413 288.387C131.181 285.291 120.414 279.391 111.328 279.112C102.714 278.847 94.0513 279.112 85.4331 279.112C73.5808 279.112 61.7285 279.112 49.8763 279.112C47.8587 279.112 -10.3794 279.462 4.39955 264.683C10.6243 258.458 23.7256 254.821 32.1622 253.732C39.1937 252.825 50.6276 253.069 56.1889 248.064C64.4986 240.585 74.546 236.421 86.0129 234.988C91.2735 234.33 97.1136 232.598 102.245 230.994C104.972 230.142 107.764 229.527 110.49 228.675C114.296 227.486 116.38 225.039 119.959 223.457C132.024 218.126 142.745 206.9 155.709 204.906C167.59 203.078 180.23 199.278 190.687 193.054C196.164 189.793 199.553 184.296 204.6 180.557C208.103 177.962 215.937 170.891 215.937 166.064C215.937 161.061 224.878 147.851 230.43 146.997C237.799 145.864 250.608 140 257.935 144.614C267.899 150.888 277.76 153.89 289.563 153.89C294.72 153.89 309.39 156.453 313.332 152.73C316.573 149.669 321.825 148.374 326.086 147.191C332.039 145.537 337.312 142.295 343.542 142.295C349.453 142.295 359.129 142.618 364.413 139.976C367.631 138.367 371.026 137.552 374.268 135.854C378.054 133.87 379.575 130.022 382.9 127.48C388.96 122.845 395.244 117.393 400.549 111.891C404.372 107.927 407.473 100.554 413.626 100.554C423.856 100.554 426.804 103.542 434.174 109.572C435.804 110.907 445.046 110.124 446.413 109.315C450.162 107.093 453.905 103.586 457.105 100.554C460.091 97.7255 462.703 98.2354 466.639 98.2354C475.287 98.2354 480.025 91.7911 484.932 85.4813C490.371 78.4895 498.684 60.6182 507.606 74.7885C510.005 78.5983 511.145 83.1624 516.238 83.1624C522.791 83.1624 526.314 77.724 530.667 73.3714C541.117 62.9215 554.264 55.0565 564.678 44.6425C571.819 37.5009 582.446 36.7839 592.183 36.7839C603.573 36.7839 609.757 32.4262 618.271 25.1893C625.206 19.2946 636.492 20.4858 643.199 15.2694C651.53 8.79017 662.067 2 672.765 2C679.072 2 681.034 2.81464 683.136 9.47209C686.735 20.8681 691.057 31.364 693.636 43.2253C695.616 52.3364 699.579 60.8375 701.752 69.893C703.647 77.7868 702.911 86.1877 702.911 94.2417C702.911 112.815 702.911 131.387 702.911 149.96C702.911 166.372 700.691 182.687 699.433 199.044C698.157 215.633 696.451 231.124 690.415 246.647C683.263 265.036 667.289 280.402 649.319 288.645C634.195 295.582 617.913 297.871 601.523 299.724C544.033 306.223 485.897 306.92 428.119 307.905C390.269 308.55 352.455 308.247 314.62 309.193C289.874 309.812 265.028 310.417 240.286 310.417C213.969 310.417 187.747 311.098 161.442 311.577C154.959 311.694 152.381 311.241 147.464 306.939C143.555 303.518 141.004 300.146 138.189 295.924C135.838 292.397 134.825 288.463 132.456 284.909" stroke="#0C0C0C" stroke-width="3" stroke-linecap="round"/>
</svg>
