<svg width="527" height="221" viewBox="0 0 527 221" fill="none" xmlns="http://www.w3.org/2000/svg">
<path d="M479.045 172.1C469.655 176.341 459.436 179.666 449.046 182.079C444.472 186.259 438.628 189.797 433.331 192.74C421.286 199.431 410.291 218.261 396.145 218.497C326.156 219.663 259.91 199.661 192.134 185.064C144.077 174.713 95.6498 176.022 50.5546 153.166C37.1071 146.35 23.4076 135.871 18.8272 120.756C15.1392 108.585 14.3069 95.6383 10.8101 83.3994C5.93142 66.3242 -11.2652 0.28855 21.8976 2.03396C27.3014 2.31838 40.1646 4.2316 43.3051 8.94235C45.9427 12.8987 56.6378 18.6336 61.8127 18.9211C80.8729 19.98 90.2931 32.0525 106.333 40.0728C112.232 43.0219 115.808 50.6507 122.453 52.6955C128.218 54.4693 133.899 61.9067 140.108 61.9067C153.467 61.9067 172.834 63.1259 182.496 53.4631C189.92 46.0394 199.827 48.0899 209.533 48.0899C220.194 48.0899 231.775 49.5565 241.601 53.3778C246.681 55.3531 252.989 53.9642 258.318 54.2307C261.906 54.4101 265.846 56.9705 269.064 58.4951C282.161 64.6986 293 66.5123 307.359 66.5123C312.291 66.5123 320.587 66.0461 324.332 69.5827C337.021 81.5673 347.24 94.4271 362.711 102.163C369.854 105.734 376.476 103.513 384.204 105.66C388.095 106.74 392.139 106.427 396.145 106.427C399.991 106.427 402.273 109.208 406.038 109.498C412.856 110.022 422.009 114.435 428.128 117.259C437.851 121.747 446.54 127.015 456.7 130.991C466.249 134.727 475.466 134.061 485.527 134.061C496.824 134.061 507.259 136.702 518.108 140.202C538.036 146.63 508.594 153.246 501.732 156.321C493.139 160.174 487.692 168.195 479.045 172.1Z" fill="#141414"/>
<path d="M422.584 186.258C441.462 184.658 461.672 179.946 479.045 172.1C487.692 168.195 493.139 160.174 501.732 156.321C508.594 153.246 538.036 146.63 518.108 140.202C507.259 136.702 496.824 134.061 485.527 134.061C475.466 134.061 466.249 134.727 456.7 130.991C446.54 127.015 437.851 121.747 428.128 117.259C422.009 114.435 412.856 110.022 406.038 109.498C402.273 109.208 399.991 106.427 396.145 106.427C392.139 106.427 388.095 106.74 384.204 105.66C376.476 103.513 369.854 105.734 362.711 102.163C347.24 94.4271 337.021 81.5673 324.332 69.5827C320.587 66.0461 312.291 66.5123 307.359 66.5123C293 66.5123 282.161 64.6986 269.064 58.4951C265.846 56.9705 261.906 54.4101 258.318 54.2307C252.989 53.9642 246.681 55.3531 241.601 53.3778C231.775 49.5565 220.194 48.0899 209.533 48.0899C199.827 48.0899 189.92 46.0394 182.496 53.4631C172.834 63.1259 153.467 61.9067 140.108 61.9067C133.899 61.9067 128.218 54.4693 122.453 52.6955C115.808 50.6507 112.232 43.0219 106.333 40.0728C90.2931 32.0525 80.8729 19.98 61.8127 18.9211C56.6378 18.6336 45.9427 12.8987 43.3051 8.94235C40.1646 4.2316 27.3014 2.31838 21.8976 2.03396C-11.2652 0.28855 5.93142 66.3242 10.8101 83.3994C14.3069 95.6383 15.1392 108.585 18.8272 120.756C23.4076 135.871 37.1071 146.35 50.5546 153.166C95.6498 176.022 144.077 174.713 192.134 185.064C259.91 199.661 326.156 219.663 396.145 218.497C410.291 218.261 421.286 199.431 433.331 192.74C439.745 189.176 446.961 184.74 451.753 179.349C455.69 174.92 463.424 174.18 468.64 172.441" stroke="#141414" stroke-width="3" stroke-linecap="round"/>
</svg>
