<svg width="1647" height="967" viewBox="0 0 1647 967" fill="none" xmlns="http://www.w3.org/2000/svg">
<path d="M91.0312 279.209C91.9186 278.797 92.9278 278.546 94.1313 278.546C99.9568 278.546 111.581 277.813 115.103 272.691C118.069 268.376 120.624 256.266 125.748 267.794C126.332 269.108 140.671 267.5 142.993 266.836C147.79 265.466 150.658 255.055 150.658 250.762C150.658 243.072 158.669 242.607 160.132 250.655C160.789 254.263 166.589 258.633 169.82 254.594C173.494 250.001 178.227 253.803 182.275 250.655C187.902 246.278 188.976 238.525 193.878 233.623C196.551 230.949 205.512 232.558 209.101 232.558C220.784 232.558 232.833 221.338 241.676 214.461C247.556 209.887 263.071 209.564 270.418 209.564C278.055 209.564 272.824 219.925 281.064 220.955C284.316 221.361 288.23 220.265 291.39 221.167C293.048 221.641 292.577 226.265 293.412 227.768C296.583 233.474 300.483 234.474 306.825 234.474C311.446 234.474 319.28 236.268 319.28 229.684C319.28 219.3 330.979 226.557 334.61 222.019C343.094 211.414 329.412 196.151 352.813 196.151C357.328 196.151 364.13 194.88 368.142 197.109C376.359 201.674 381.054 194.235 387.411 194.235C393.861 194.235 399.873 197.51 406.466 196.044C411.482 194.93 421.312 195.848 425.521 193.17C437.257 185.702 437.883 171.241 452.56 171.241C460.861 171.241 463.067 177.574 469.806 178.799C478.503 180.38 481.812 171.241 488.861 171.241C496.081 171.241 496.3 163.576 502.274 163.576H517.603C523.204 163.576 527.849 167.409 533.997 167.409C543.421 167.409 548.409 155.912 557.843 155.912C561.988 155.912 568.584 156.332 572.214 158.254C579.082 161.89 570.533 167.409 581.795 167.409C585.844 167.409 593.517 168.892 597.124 166.983C600.873 164.998 598.897 155.241 599.04 151.653C599.253 146.328 606.145 146.33 610.357 146.331L610.537 146.331C617.125 146.331 618.124 144.511 621.608 140.156C628.687 131.308 645.055 140.439 650.776 132.492C655.745 125.591 661.374 124.996 667.17 119.504C671.452 115.448 671.01 108.591 675.687 104.175C680.562 99.5702 686.226 95.8183 691.016 90.762C699.065 82.2656 697.815 78.3997 708.261 88.8459C713.236 93.8205 718.019 96.5105 725.507 96.5105C731.512 96.5105 734.104 92.6782 738.92 92.6782C744.003 92.6782 749.175 92.9601 754.249 92.6782C760.605 92.3251 760.621 87.2067 767.662 90.3362C770.635 91.6576 774.297 89.7925 777.243 91.1878C780.346 92.6574 780.373 96.3641 782.992 98.0009C786.634 100.277 786.521 105.755 792.572 106.091C801.734 106.6 821.204 107.267 828.128 100.343C833.297 95.1739 831.787 87.9743 838.56 84.5877C843.535 82.1002 848.325 81.1812 853.89 81.1812C856.69 81.1812 860.937 82.0219 863.47 80.7554C866.037 79.472 864.314 75.6086 867.303 75.4327C874.386 75.0161 877.386 75.7819 882.632 70.5359C885.733 67.4345 891.527 63.5855 893.703 60.1034C897.677 53.7461 898.613 56.0502 904.136 56.2711C911.259 56.5561 915.67 57.0772 919.465 50.5226C925.997 39.2398 929.527 47.2032 937.775 44.3483C940.563 43.3832 945.08 38.1108 947.356 43.2838C948.731 46.4104 949.25 50.2848 953.53 50.5226C959.98 50.8809 968.844 46.7595 972.266 40.9418C973.79 38.351 975.382 38.6613 976.95 40.9418C980.264 45.7621 983.945 39.2697 986.105 37.1095C988.322 34.8925 992.19 36.2383 993.769 33.9159C996.001 30.6341 994.852 26.6074 997.602 23.6964C1000.34 20.7993 1004.11 13.2018 1008.14 12.3058C1013.32 11.1546 1020 12.1994 1025.28 12.1994C1036.87 12.1994 1051.63 -11.0959 1054.98 7.30253C1056.22 14.119 1067.11 6.85272 1068.39 11.3478C1069.52 15.2842 1072.59 20.667 1077.12 21.6737C1083.06 22.9935 1087.8 29.7939 1094.37 31.2546C1100.11 32.5301 1103.62 29.8663 1107.89 34.1288C1111.58 37.8209 1108.28 49.057 1112.68 50.5226C1119.12 52.669 1124.77 55.0425 1130.78 56.3776C1133.87 57.0645 1135.69 64.0769 1137.38 66.5971C1138.65 68.5091 1143.01 67.9646 1145.15 68.7262C1150.61 70.6784 1158.75 70.593 1161.43 76.4973C1168.15 91.2726 1174.16 90.762 1190.18 90.762C1201.85 90.762 1207.19 104.175 1219.88 104.175C1225.66 104.175 1230.69 106.347 1235.31 109.817C1238.5 112.21 1242 111.84 1245.74 111.84C1252.96 111.84 1253.76 119.782 1256.39 125.04C1258.05 128.361 1270.96 141.626 1275.45 133.769C1279.88 126.011 1285.49 134.834 1289.82 134.834C1297.74 134.834 1300.51 137.902 1307.06 141.54C1309.85 143.088 1312.45 144.16 1314.83 146.331C1318.61 149.767 1323.66 147.359 1328.14 148.353C1331.68 149.141 1330.55 152.396 1331.12 154.953C1331.89 158.411 1335.36 158.97 1337.72 160.808C1342.44 164.481 1350.88 167.455 1353.9 171.986C1357.3 177.084 1362.8 172.583 1366.36 176.138C1370.5 180.277 1369.05 184.654 1376.04 184.654C1379.36 184.654 1379.4 181.834 1381.79 179.97C1385.35 177.205 1385.24 181.943 1387.65 182.631C1393.54 184.316 1394.92 189.159 1399.04 193.277C1403.31 197.549 1410.52 193.86 1413.41 198.919C1415.44 202.469 1422.7 204.337 1425.86 206.796L1426.2 207.06C1431.4 211.105 1431.88 211.48 1439.38 211.48H1460.35C1470.61 211.48 1481.5 228.654 1491.55 232.132C1499.05 234.729 1505.43 235.247 1513.05 236.39C1517.92 237.121 1531.51 243.828 1532.21 249.803C1532.57 252.878 1538.58 259.384 1541.79 259.384C1550.17 259.384 1552.13 259.93 1554.78 268.539C1557.55 277.538 1570.29 287.439 1578.2 292.385C1583.52 295.713 1583.73 300.039 1583.95 305.798C1584.19 312.007 1589.39 317.199 1591.19 323.043C1594.85 334.951 1599.28 348.736 1599.28 361.367C1599.28 372.052 1602.84 391.564 1595.02 399.69C1568 427.749 1528.85 439.291 1492.4 449.084C1458.85 458.097 1424.7 465.303 1391.05 474.42C1359.22 483.047 1325.12 484.581 1292.69 491.24C1237.76 502.521 1183.16 513.128 1127.26 518.492C1069.08 524.074 1010.74 523.41 952.465 527.221C861.53 533.168 770.169 531.479 679.093 531.479H258.389C228.829 531.479 199.691 531.783 170.458 526.795C151.254 523.519 136.79 515.95 119.574 508.06C108.677 503.065 95.3882 499.185 85.5086 492.304C73.3572 483.842 62.4249 469.634 52.508 458.665C35.4442 439.792 24.1914 423.359 24.1914 397.348C24.1914 375.687 22.2029 356.576 33.7722 337.521C39.5587 327.99 45.0302 319.567 53.3597 311.546C57.4648 307.593 63.8076 304.664 66.7728 299.624C67.3536 298.636 67.9629 297.645 68.6086 296.673C61.9133 290.854 73.6719 276.63 81.6763 276.63C83.3986 276.63 87.9217 277.524 91.0312 279.209Z" fill="#1A1A1A"/>
<path d="M280.46 330.587C293.348 330.587 306.274 330.814 319.189 330.815C323.311 326.495 327.751 322.451 332.61 318.787C356.735 300.595 383.864 296.453 413.837 296.453C439.187 296.453 464.451 294.556 489.585 294.556C526.752 294.556 565.109 274.658 601.049 266.532C632.772 259.36 665.225 256.226 697.13 250.097C731.92 243.415 767.069 243.773 801.851 238.719C833.895 234.063 865.748 228.745 898.144 226.709C924.112 225.077 952.219 223.527 977.79 218.702C995.265 215.405 1013.47 216.806 1031.2 216.806C1051.43 216.806 1072.06 214.387 1092.2 212.592C1134.36 208.836 1176.18 205.359 1218.63 207.43C1233.12 208.137 1246.52 211.189 1260.66 213.013C1275.55 214.934 1287.24 220.625 1301.43 224.497C1329.05 232.028 1353.4 243.607 1381.92 247.569C1407.54 251.127 1433.46 251.799 1459.04 255.154C1476.94 257.501 1497.23 256.809 1514.56 261.37C1523.7 263.776 1536.34 265.958 1544.17 270.852C1551.04 275.148 1561.63 268.218 1568.19 274.118C1579.29 284.112 1590.88 296.756 1595.58 312.045C1598.74 322.318 1597.28 327.207 1605.06 335.855C1610.6 342.012 1612.52 348.061 1614.02 356.293C1616.54 370.15 1614.12 386.756 1614.12 400.857V447.739V664.239C1614.12 682.412 1619.81 699.337 1619.81 717.443V781.919C1619.81 789.923 1616.73 805.33 1620.65 812.682C1624.92 820.681 1623.05 829.868 1626.34 838.388C1631.89 852.736 1639.71 866.141 1645.31 880.529C1648.19 887.938 1646.36 898.395 1646.36 906.13C1646.36 914.599 1645.24 914.663 1637.83 914.663H1593.89C1553.71 914.663 1512.54 917.211 1472.63 911.819C1456.45 909.631 1439.92 911.458 1423.64 910.765C1407.63 910.083 1391.64 907.276 1375.6 907.078C1289.86 906.019 1204.13 907.078 1118.33 907.078C979.689 907.078 842.143 926.244 705.98 950.272C578.752 972.725 448.308 965.865 319.651 965.865H145.924C110.711 965.865 79.1933 962.749 45.207 954.592C32.609 951.568 37.9072 934.302 36.252 925.198C34.2227 914.038 34.461 902.964 34.461 891.486C34.461 855.531 32.5646 819.807 32.5646 783.815C32.5646 745.691 34.0054 701.721 18.2366 666.241C13.1561 654.81 17.3938 632.746 17.3938 620.518C17.3938 601.181 17.7741 581.616 12.1262 563.417C7.83216 549.581 8.27265 532.3 5.5943 517.904C2.78411 502.8 0.32666 487.966 0.32666 472.603C0.32666 444.055 6.01571 416.024 6.01571 387.899C6.01571 378.73 9.14934 371.814 9.80842 363.246C10.3063 356.774 13.804 341.973 18.4473 337.33C23.2334 332.544 21.1865 322.373 21.1865 315.416L21.1865 315.108C21.1855 304.592 21.1854 303.511 31.6165 305.829C36.3899 306.89 39.8706 303.21 42.0464 299.403C43.4341 296.974 49.9403 298.81 52.4763 297.401C57.1645 294.796 61.9086 294.985 64.8026 289.921C66.4518 287.035 71.1343 285.075 74.2844 285.075C85.0722 285.075 87.0755 289.005 95.5656 294.556C102.33 298.979 111.075 298.349 118.849 298.349C128.422 298.349 139.681 296.745 149.085 298.454C162.548 300.902 176.777 308.062 190.594 311.202C203.633 314.166 214.417 323.801 227.889 326.794C245.384 330.682 262.546 330.587 280.46 330.587Z" fill="#191919"/>
</svg>
