<svg width="1326" height="706" viewBox="0 0 1326 706" fill="none" xmlns="http://www.w3.org/2000/svg">
<g clip-path="url(#clip0_114_12)">
<path d="M814.936 669.219H235.028C227.226 672.903 219.886 677.827 212.444 682.063C190.432 694.593 169.404 705.723 142.9 705.723C78.6968 705.723 14.4908 706.384 -49.5935 701.836C-76.9336 699.896 -106.82 700.222 -133.165 691.358C-143.496 687.882 -153.55 681.583 -162.909 676.063C-172.017 670.692 -182.302 666.932 -187.584 657.051C-194.933 643.3 -196.546 628.95 -197.386 613.617C-199.672 571.894 -210.908 528.788 -203.047 486.865C-196.161 450.138 -179.912 415.046 -166.965 380.225C-163.825 371.78 -159.53 364.693 -155.051 356.903C-145.783 340.785 -143.709 320.849 -137.221 303.498L-136.986 302.87C-131.313 287.695 -126.671 275.28 -117.279 261.755C-110.381 251.822 -104.994 241.459 -97.8436 232.01C-89.33 220.76 -79.8787 209.403 -73.1693 196.943C-65.8412 183.333 -53.5325 169.454 -49.5935 154.354C-48.1687 148.892 -43.2324 138.383 -37.3409 138.383C-30.2762 138.383 -30.7471 134.832 -25.9332 130.018C-19.8576 123.942 -17.5676 119.101 -17.5676 110.076C-17.5676 97.1648 -13.3179 87.0523 -11.1455 74.5006C-10.0251 68.0272 -6.92049 63.6849 -6.92049 57.0089C-6.92049 52.2494 -2.0237 49.905 -0.498413 45.9393C3.66304 35.1195 9.25452 28.9743 20.2888 24.5605C26.6085 22.0327 37.493 19.2084 44.4561 19.744C47.7269 19.9956 47.9168 25.0496 51.6387 24.2225C53.9779 23.7027 57.3425 21.9909 59.1593 20.5045C64.1795 16.397 68.0861 18.967 72.1725 12.4769C76.0647 6.29508 76.7088 -4.18316 87.3826 1.15377C93.0856 4.00524 94.4956 11.0238 96.5932 16.6175C99.0472 23.1615 108.504 17.7142 113.24 20.082C120.282 23.603 123.545 34.3125 129.211 39.3482C134.619 44.1554 138.998 49.8468 144.336 54.7274C150.888 60.7177 157.735 49.1822 158.786 43.4043C159.822 37.7075 168.695 46.4819 172.898 44.0803C178.27 41.0102 187.35 41.4582 191.572 37.2357C198.516 30.292 198.492 37.075 206.022 37.9117C209.175 38.262 212.95 36.9747 213.627 41.0382C214.185 44.3835 217.555 42.9635 219.373 44.4183C221.506 46.1244 223.204 45.0298 225.795 45.7703C229.445 46.8132 229.605 50.1643 234.076 50.1643C236.154 50.1643 240.044 49.4397 241.85 50.5023C244.05 51.7961 241.52 57.5313 245.568 57.7694C250.025 58.0316 252.019 45.8148 256.892 47.2068C259.219 47.8718 259.903 53.8733 260.779 55.5724C262.147 58.2287 264.545 57.0484 265.68 59.6285C267.866 64.5974 275.655 64.7647 280.383 65.29C284.403 65.7367 282.404 67.0803 285.199 69.1771C288.027 71.2979 294.847 80.8208 298.804 78.7257C306.096 74.8654 300.102 62.1092 310.634 72.6416C315.166 77.1733 321.865 79.3195 328.379 77.4582C330.682 76.8002 328.404 71.916 332.604 74.5006C335.568 76.3245 338.065 78.2908 341.731 77.2047C348.225 75.2803 349.685 79.5783 352.885 85.0633C356.285 90.8929 384.467 81.9977 392.178 83.7112C401.118 85.6979 411.945 83.1654 421.246 85.2323C424.413 85.936 425.465 89.5035 429.612 89.7108C430.9 89.7752 435.153 88.9513 435.611 90.5558C437.584 97.4623 439.092 105.234 443.639 111.005C448.608 117.313 453.042 109.484 459.271 109.484C464.186 109.484 469.147 109.295 474.059 109.484C481.25 109.761 483.229 118.61 491.213 118.61C495.047 118.61 494.584 119.777 497.212 122.328C501.482 126.473 505.767 126.417 511.409 126.215C517.95 125.982 521.466 118.61 528.478 118.61C530.531 118.61 539.063 121.953 539.125 123.511C539.43 131.136 546.533 124.762 548.589 132.299C549.862 136.967 551.87 142.946 557.377 142.946C564.569 142.946 566.509 148.815 568.362 155.115C568.947 157.103 571.025 162.119 573.348 162.635C575.261 163.06 577.788 162.005 579.347 163.565C581.692 165.91 578.53 168.661 583.234 168.804C585.82 168.882 589.993 167.958 592.361 169.142C598.353 172.138 601.395 181.864 604.698 169.48C605.6 166.097 608.119 158.735 612.134 160.861C614.271 161.992 614.032 165.466 616.697 165.762C621.725 166.32 627.89 164.389 632.583 166.522C636.545 168.323 640.778 166.601 642.554 171.93C645.036 179.375 652.374 177.833 658.102 176.071C666.872 173.373 687.688 170.766 690.889 181.648C694.378 193.511 700.052 214.434 715.479 214.434C727.264 214.434 729.118 235.505 742.181 232.602C743.993 232.199 748.299 229.543 749.363 228.123C751.264 225.589 754.773 227.1 757.391 226.518C761.783 225.542 764.255 220.331 767.278 217.476C772.444 212.597 776.768 217.583 780.291 220.603C782.506 222.502 784.607 226.511 787.727 226.602C793.136 226.762 798.091 226.834 803.444 227.785C813.595 229.59 825.44 228.123 835.723 228.123C841.916 228.123 843.913 234.208 848.906 234.208C856.94 234.208 863.324 234.608 867.327 226.602C870.354 220.548 868.392 214.434 876.791 214.434C883.095 214.434 891.601 215.674 897.24 218.237C902.684 220.712 906.971 217.503 911.774 222.039C916.108 226.132 921.219 226.602 926.9 226.602C931.795 226.602 935.788 224.81 940.674 225.081C947.806 225.478 945.576 233.026 949.124 236.574C953.729 241.178 964.455 245.163 971.094 241.475C973.869 239.933 976.18 234.594 979.375 239.616C981.238 242.543 981.446 244.855 985.544 244.855C993.214 244.855 1003.92 236.411 1009.46 246.376C1011.74 250.479 1017.19 257.712 1022.05 258.459C1028 259.375 1032.17 255.502 1038.02 255.502C1042.65 255.502 1047.73 256.121 1052.3 255.417C1055.05 254.994 1054.51 252.46 1057.79 252.46C1065.06 252.46 1071.6 255.502 1079.09 255.502C1086.52 255.502 1092.57 254.209 1098.1 260.065C1106.17 268.615 1113.55 270.712 1124.72 270.712C1131.13 270.712 1135.55 270.719 1141.45 273.754C1145.49 275.83 1148.78 279.395 1152.86 281.275C1155.38 282.437 1158.58 282.317 1160.46 284.401C1164.76 289.181 1173.12 292.928 1179.14 294.71C1184.93 296.428 1185.95 292.006 1191.64 292.006C1202.51 292.006 1214.02 290.57 1224.34 294.372C1229.53 296.283 1234.65 299.611 1240.31 299.611C1247.47 299.611 1249.73 305.695 1256.28 305.695C1258.98 305.695 1263.71 304.728 1266.17 306.033C1268.99 307.528 1268.6 312.087 1272.26 313.131C1277.69 314.683 1279.86 319.031 1279.86 325.807C1279.86 338.849 1285.09 356.698 1292.03 367.719C1299.45 379.505 1298.11 398.281 1298.11 412.167C1298.11 425.618 1296.71 439.866 1298.2 453.234C1299.4 464.081 1302.09 475.102 1302.68 486.02C1303.23 496.292 1306.73 506.939 1308.42 517.117C1310.29 528.297 1312.99 538.926 1315.6 549.903C1317.64 558.464 1322.49 566.352 1324.31 575.254C1326.03 583.681 1325.49 592.276 1325.49 600.857C1325.49 611.061 1326.27 632.432 1317.89 639.136C1313.92 642.31 1303.49 640.319 1298.87 640.319C1278.79 640.319 1259.54 643.361 1239.47 643.361C1209.16 643.361 1179.25 647.924 1149.05 647.924C1107.99 647.924 1066.93 649.193 1025.85 649.445C1004.7 649.575 984.331 653.875 963.404 656.29C945.071 658.405 926.666 659.814 908.394 662.459C891.031 664.972 873.781 669.056 856.173 669.219C842.43 669.346 828.68 669.219 814.936 669.219Z" fill="#141414"/>
</g>
<defs>
<clipPath id="clip0_114_12">
<rect width="1326" height="706" fill="white"/>
</clipPath>
</defs>
</svg>
