<svg width="455" height="447" viewBox="0 0 455 447" fill="none" xmlns="http://www.w3.org/2000/svg">
<g clip-path="url(#clip0_9_2)">
<path d="M87 51H432V396H87V51Z" fill="#5E2B0E"/>
<path d="M87 51H432V396H87V51Z" fill="#5E2B0E"/>
<path d="M0 0H455V55.5H0V0Z" fill="#47230E"/>
<path d="M0 0H455V55.5H0V0Z" fill="#47230E"/>
<path d="M0 0H455V55.5H0V0Z" fill="#47230E"/>
<path d="M0 0H455V55.5H0V0Z" fill="#47230E"/>
<path d="M0 0H455V55.5H0V0Z" fill="#47230E"/>
<rect y="392" width="455" height="55" fill="#47230E"/>
<rect y="392" width="455" height="55" fill="#47230E"/>
<rect y="392" width="455" height="55" fill="#47230E"/>
<rect y="392" width="455" height="55" fill="#47230E"/>
<rect y="392" width="455" height="55" fill="#47230E"/>
<path d="M0 0L87 55.5V392L0 447V0Z" fill="#311506"/>
<path d="M455 0L431 55.5V392L455 447V0Z" fill="#311506"/>
<path d="M320 33.5H394L389.5 55.5H324L320 33.5Z" fill="url(#paint0_linear_9_2)"/>
<path d="M320 415H394L389.423 392H324.196L320 415Z" fill="url(#paint1_linear_9_2)"/>
<path d="M320 33.5L324 55.5H389.5L394 33.5L416 419.506H298L320 33.5Z" fill="url(#paint2_linear_9_2)" fill-opacity="0.12"/>
<rect x="156" y="272" width="102" height="57" fill="#E9BA5A" stroke="#311506" stroke-width="2"/>
<line x1="227.5" y1="26" x2="227.5" y2="95" stroke="black"/>
<circle cx="227.5" cy="94.5" r="5.5" fill="#FFF7AC"/>
<path d="M226.852 85.6561C226.947 85.5565 227.078 85.5 227.215 85.5H227.785C227.922 85.5 228.053 85.5565 228.148 85.6561L236.201 94.1561C236.502 94.4748 236.277 95 235.838 95H219.162C218.723 95 218.498 94.4748 218.799 94.1561L226.852 85.6561Z" fill="black"/>
<path d="M219 95H236L455 329V447H0V329L219 95Z" fill="url(#paint3_linear_9_2)" fill-opacity="0.12"/>
<path d="M85 374C85 373.448 85.4477 373 86 373H89C89.5523 373 90 373.448 90 374V438C90 438.552 89.5523 439 89 439H86C85.4477 439 85 438.552 85 438V374Z" fill="#230F04"/>
<path d="M139 345C139 344.448 139.448 344 140 344H142C142.552 344 143 344.448 143 345V395C143 395.552 142.552 396 142 396H140C139.448 396 139 395.552 139 395V345Z" fill="#230F04"/>
<path d="M87 339H151L90.5 373H7.5L87 339Z" fill="#281307"/>
<path d="M7.5 373H90.5L151 339V341L90.5 376H7.5V373Z" fill="#230F04"/>
<path d="M90.5 376L151 341L143 367L140.5 369V396C139.5 396 139 396 139 395V379.5L135 392L140 394.5L139.5 395.924L134 393L90 427.5V400.5L87 403V439C85.8586 439.013 85.1026 439.151 85 438V431.5L73.5 441L85.0107 438.098L87 439H89L71 443L65.5 447.5H0V382.5L7.5 373V376H90.5Z" fill="black" fill-opacity="0.3"/>
<path d="M45 320L50 318.5V337L45 339V320Z" fill="#1E1E1E"/>
<path d="M34 321.5L81 308V341.5H86L41 361.688H34V321.5Z" fill="black" fill-opacity="0.3"/>
<path d="M48.25 351.625V310.189L89.75 298.331V334.333L48.25 351.625Z" fill="#1E1E1E" stroke="black" stroke-width="0.5"/>
<path d="M47 312C47.1462 311.067 47.3862 310.643 48 310V352C47.3326 352.031 47.0297 351.939 47 351V312Z" fill="black"/>
<path opacity="0.8" d="M58.8508 312.523L75 307.5" stroke="#0038FF"/>
<path opacity="0.8" d="M58.8508 315.523L72 311.5" stroke="#FFF500"/>
<path opacity="0.8" d="M58.8508 318.523L77 312.5" stroke="white"/>
<path opacity="0.8" d="M58.8509 323.523L75 318" stroke="#0038FF"/>
<path opacity="0.8" d="M58.8508 326.523L75.9999 320.5" stroke="#FFF500"/>
<path opacity="0.8" d="M58.8509 329.523L75.5 323.5" stroke="white"/>
<path opacity="0.8" d="M58.8509 332.523L72.5 327.5" stroke="white"/>
<path opacity="0.8" d="M58.8508 335.523L74.5 329.5" stroke="white"/>
<path opacity="0.8" d="M58.8509 338.523L71.5 333.5" stroke="white"/>
<path d="M48.5 350.75L89.5 333.75V334.25L48.5 351.25V350.75Z" fill="#00B2FF" fill-opacity="0.5"/>
<path d="M74.5 361H75L73.5 363H73L74.5 361Z" fill="black"/>
<path d="M72.9354 361.108C72.9749 361.042 73.0486 361.004 73.125 361.011L83.8181 361.983C83.9211 361.993 84 362.079 84 362.183V362.808C84 362.915 83.9153 363.003 83.808 363.008L71.87 363.485C71.7111 363.492 71.6087 363.319 71.6905 363.182L72.9354 361.108Z" fill="black" fill-opacity="0.3"/>
<path d="M97.9253 349.036C97.9742 349.012 98.0285 349.003 98.0825 349.007L107.981 349.907C108.279 349.934 108.358 350.334 108.092 350.472L84.0829 362.957C84.0289 362.985 83.9677 362.996 83.9073 362.988L73.0114 361.626C72.7145 361.589 72.6489 361.188 72.9186 361.058L97.9253 349.036Z" fill="#121212"/>
<path d="M109 346H114V347C109.304 347.096 107.907 346.997 108 346.5L109 346Z" fill="black" fill-opacity="0.3"/>
<path d="M111.5 345.028C113.864 345.318 114.456 345.337 115 346.528C115.171 347.285 112.666 347.032 108 346.528C108.528 345.311 109.16 344.879 111.5 345.028Z" fill="#121212"/>
</g>
<defs>
<linearGradient id="paint0_linear_9_2" x1="357" y1="33" x2="357" y2="55" gradientUnits="userSpaceOnUse">
<stop stop-color="#311506"/>
<stop offset="0.0001" stop-color="#221005"/>
<stop offset="1" stop-color="#311506"/>
</linearGradient>
<linearGradient id="paint1_linear_9_2" x1="357" y1="415" x2="357" y2="392" gradientUnits="userSpaceOnUse">
<stop stop-color="#311506"/>
<stop offset="0.0001" stop-color="#221005"/>
<stop offset="1" stop-color="#311506"/>
</linearGradient>
<linearGradient id="paint2_linear_9_2" x1="355.272" y1="45.5063" x2="355.272" y2="430.506" gradientUnits="userSpaceOnUse">
<stop stop-color="#FFE896"/>
<stop offset="1" stop-color="#FFE896" stop-opacity="0"/>
</linearGradient>
<linearGradient id="paint3_linear_9_2" x1="227.5" y1="95" x2="227.5" y2="447" gradientUnits="userSpaceOnUse">
<stop stop-color="#FFF7AC"/>
<stop offset="1" stop-color="#FFF7AC" stop-opacity="0"/>
</linearGradient>
<clipPath id="clip0_9_2">
<rect width="455" height="447" fill="white"/>
</clipPath>
</defs>
</svg>
